<svg width="51" height="44" viewBox="0 0 51 44" fill="none" xmlns="http://www.w3.org/2000/svg">
<path d="M50.199 33.915C50.1789 33.9864 50.1578 34.0579 50.1361 34.1279C50.135 34.1334 50.1329 34.1388 50.1303 34.1437C50.1292 34.1494 50.1276 34.1551 50.1261 34.1593C50.1234 34.1674 50.1208 34.1754 50.1192 34.1837C50.1075 34.2194 50.0964 34.2537 50.0848 34.2865C50.0764 34.3123 50.0679 34.338 50.0589 34.3623C50.0552 34.3764 50.0504 34.3902 50.0446 34.4038C50.043 34.413 50.0399 34.4221 50.0362 34.4309V34.4323C50.0362 34.4337 50.0351 34.4352 50.0335 34.438C50.0319 34.4413 50.0304 34.4446 50.0293 34.4481C50.0277 34.4509 50.0261 34.4552 50.0251 34.458C50.0092 34.5023 49.9934 34.5481 49.9764 34.5924C49.9595 34.6367 49.9421 34.6838 49.9236 34.7281C49.8924 34.8096 49.858 34.891 49.8242 34.971C49.8083 35.0096 49.7909 35.0483 49.7724 35.0854C49.757 35.124 49.7396 35.1626 49.7211 35.1997C49.7184 35.2054 49.7158 35.2126 49.7126 35.2183C49.673 35.3054 49.6301 35.3912 49.5857 35.4755C49.5799 35.4893 49.5736 35.5026 49.5656 35.5155C49.5186 35.607 49.4705 35.6956 49.4192 35.7842C49.4176 35.7901 49.4144 35.7955 49.4102 35.7999C49.3864 35.8456 49.3589 35.8899 49.3335 35.9328C49.2992 35.9914 49.2648 36.0486 49.2278 36.1057C49.2193 36.12 49.2109 36.1343 49.2008 36.1486C49.1707 36.1972 49.1379 36.2472 49.1051 36.2958C49.0412 36.393 48.9756 36.4887 48.9058 36.583C48.9027 36.5894 48.8979 36.5952 48.8931 36.6002C48.8826 36.6165 48.8709 36.6323 48.8588 36.6473C48.8572 36.6502 48.8545 36.653 48.853 36.6559C48.8429 36.6702 48.8318 36.6845 48.8218 36.6973C48.8117 36.7102 48.8033 36.723 48.7932 36.7359C48.7916 36.7388 48.789 36.7416 48.7874 36.7445C48.7789 36.7559 48.7705 36.7659 48.7604 36.7774C48.7403 36.8045 48.7203 36.8302 48.6991 36.8559C48.688 36.8718 48.6758 36.8871 48.6632 36.9017C48.6547 36.9131 48.6462 36.9245 48.6362 36.936C48.6261 36.9474 48.6161 36.9603 48.6066 36.9717C48.5992 36.9817 48.5907 36.9917 48.5833 37.0003L48.5807 37.0032C48.5664 37.0203 48.5537 37.0375 48.5394 37.0531C48.5082 37.0903 48.4765 37.1275 48.4437 37.1646C48.4369 37.1732 48.4311 37.1803 48.4237 37.1875C48.4184 37.195 48.412 37.2022 48.4052 37.2089C48.3713 37.2489 48.3354 37.2875 48.2984 37.3275C48.2899 37.3375 48.2814 37.3476 48.2714 37.3575C48.2613 37.3675 48.2513 37.379 48.2413 37.389C48.2212 37.4104 48.2016 37.4319 48.1799 37.4533C48.1709 37.4645 48.1609 37.475 48.1503 37.4847C48.1017 37.5362 48.0504 37.5876 47.9975 37.6391C47.9748 37.6619 47.9505 37.6862 47.9251 37.7105C47.7924 37.8391 47.6555 37.962 47.5127 38.082C47.509 38.0859 47.5048 38.0892 47.5 38.0921C47.4773 38.1121 47.453 38.1321 47.4287 38.1521C47.4086 38.1692 47.3874 38.1864 47.3657 38.2035C47.3604 38.2078 47.3546 38.2121 47.3504 38.215C47.3145 38.2449 47.2774 38.2736 47.242 38.3007C47.1892 38.3421 47.1363 38.3821 47.0839 38.4207C47.0697 38.4322 47.0538 38.4422 47.0395 38.4522C47.0342 38.4569 47.0284 38.4612 47.0226 38.465C47.02 38.4682 47.0163 38.4706 47.0126 38.4722C47.0009 38.4808 46.9898 38.4894 46.9782 38.4965C46.9428 38.5222 46.9084 38.5465 46.8725 38.5708C46.8566 38.5832 46.8402 38.5947 46.8228 38.6051C46.7799 38.6337 46.7387 38.6623 46.6959 38.6894C46.6774 38.7023 46.6605 38.7137 46.642 38.7251C46.6234 38.7366 46.6044 38.7494 46.5859 38.7608C46.5605 38.7766 46.5346 38.7937 46.5093 38.808C46.495 38.8189 46.4796 38.8285 46.4638 38.8366L46.4421 38.8494C46.4336 38.8552 46.4236 38.8609 46.4151 38.8666C46.2994 38.9352 46.1825 39.0009 46.0641 39.0652C46.016 39.091 45.966 39.1167 45.9161 39.1424C45.9073 39.1477 45.8983 39.1525 45.889 39.1567C45.8876 39.1567 45.8876 39.1581 45.8861 39.1581C45.9018 39.0981 45.9161 39.0367 45.9303 38.9752C45.9417 38.9266 45.9531 38.8781 45.9631 38.8295C45.9873 38.7223 46.0075 38.6137 46.026 38.5036V38.4994C46.0266 38.4988 46.0266 38.4981 46.0271 38.4974C46.0271 38.4966 46.0276 38.4958 46.0271 38.4951C46.0303 38.4808 46.0329 38.465 46.0345 38.4508C46.0387 38.4264 46.0429 38.4036 46.0456 38.3793C46.0588 38.3021 46.0699 38.2235 46.0799 38.145C46.0799 38.1407 46.0815 38.1364 46.0815 38.1321C46.09 38.0635 46.0985 37.9949 46.1059 37.9263C46.1069 37.9177 46.1069 37.9077 46.1085 37.8992L46.1127 37.8434C46.1201 37.7663 46.1254 37.6877 46.1312 37.6105V37.6034C46.137 37.5148 46.1413 37.4247 46.1439 37.3361C46.1471 37.2475 46.1487 37.156 46.1487 37.066C46.1487 36.9917 46.1471 36.9189 46.1455 36.8459C46.1439 36.8131 46.1439 36.7817 46.1413 36.7488C46.1397 36.6902 46.137 36.6316 46.1344 36.573C46.1312 36.5402 46.1296 36.5058 46.127 36.473C46.1254 36.4516 46.1244 36.4315 46.1228 36.4101C46.1201 36.3701 46.117 36.3315 46.1127 36.2929L46.1085 36.25C46.1069 36.2258 46.1043 36.2 46.1016 36.1743C46.1006 36.1614 46.0995 36.1485 46.0969 36.1357C46.0926 36.0843 46.0858 36.0314 46.0784 35.98C46.0699 35.9099 46.0599 35.8385 46.0488 35.7685C46.0414 35.7185 46.0329 35.6699 46.0244 35.6198C46.017 35.5755 46.0102 35.5327 46.0017 35.4884C45.993 35.4441 45.983 35.3969 45.9731 35.3512V35.3483C45.9674 35.3212 45.9617 35.2926 45.956 35.2654C45.9545 35.2583 45.9531 35.2526 45.9517 35.2454C45.946 35.2197 45.9403 35.1926 45.9332 35.1669C45.932 35.1582 45.9301 35.1495 45.9275 35.1411C45.9161 35.0939 45.9061 35.0483 45.8947 35.0025C45.8918 34.9925 45.8904 34.9839 45.8876 34.9753C45.8761 34.931 45.8647 34.8867 45.8519 34.841C45.8462 34.821 45.8405 34.7996 45.8348 34.7781L45.8134 34.7053C45.8077 34.6838 45.802 34.6624 45.7949 34.6424C45.7937 34.6355 45.7918 34.6289 45.7892 34.6224C45.7849 34.6081 45.7806 34.5952 45.7763 34.5809C45.7749 34.5781 45.7749 34.5738 45.7735 34.5709C45.7621 34.5338 45.7521 34.498 45.7393 34.4623C45.7364 34.4537 45.7335 34.4466 45.7307 34.438C45.7278 34.4295 45.725 34.418 45.7208 34.4066C45.7065 34.3594 45.6908 34.3123 45.6723 34.2666C45.668 34.2508 45.6609 34.2351 45.6551 34.2194C45.6536 34.2163 45.6526 34.2129 45.6523 34.2094C45.6352 34.1593 45.6167 34.1094 45.5967 34.0608V34.0594C45.5867 34.0322 45.5767 34.005 45.5653 33.9779C45.5568 33.9536 45.5468 33.9279 45.5354 33.9036C45.5154 33.8521 45.494 33.8021 45.4726 33.7521L45.4641 33.7306C45.447 33.6906 45.4285 33.6492 45.4099 33.6077L45.4014 33.5906C45.3971 33.5806 45.3928 33.572 45.3885 33.562C45.3871 33.5606 45.3871 33.5578 45.3857 33.5563C45.3672 33.512 45.3457 33.4677 45.3244 33.4234C45.3222 33.4198 45.3203 33.416 45.3187 33.412C45.313 33.4005 45.3058 33.3877 45.3002 33.3748C45.2403 33.2505 45.1775 33.1291 45.1105 33.009C45.0905 32.9718 45.0706 32.9347 45.0492 32.899C45.0407 32.8818 45.0307 32.8647 45.0207 32.8475C45.0022 32.8161 44.9836 32.7861 44.9651 32.7546C44.9566 32.7389 44.9466 32.7232 44.9366 32.7074C44.8981 32.6417 44.8582 32.5775 44.8168 32.5131C44.7669 32.436 44.717 32.3617 44.6657 32.2859C44.65 32.2645 44.6343 32.243 44.6187 32.2202C44.6111 32.2076 44.6025 32.1956 44.593 32.1845C44.5645 32.143 44.5346 32.103 44.5046 32.0616C44.4932 32.0444 44.4804 32.0287 44.4675 32.0115L44.4419 31.9773C44.4005 31.9229 44.3592 31.8686 44.3164 31.8157L44.2651 31.7515C44.248 31.73 44.2309 31.7086 44.2123 31.6871C44.2009 31.6729 44.1895 31.66 44.1781 31.6457C44.1382 31.5971 44.0969 31.55 44.0541 31.5028C44.0099 31.4514 43.9643 31.3999 43.9172 31.3499C43.873 31.2999 43.826 31.2513 43.7775 31.2027C43.7319 31.1527 43.6834 31.1055 43.6349 31.0584C43.6335 31.0569 43.6335 31.0569 43.6335 31.0555L43.6321 31.0541C43.585 31.0069 43.5366 30.9612 43.4866 30.9155C43.461 30.8897 43.4353 30.8669 43.4097 30.8426L43.9166 30.5484C44.1473 30.4156 44.4085 30.3458 44.6744 30.3458C44.9403 30.3458 45.2016 30.4156 45.4322 30.5484L46.3491 31.0785C46.3506 31.0791 46.3522 31.0801 46.3533 31.0814H46.3543L46.3559 31.0828L49.1321 32.6891L49.4684 32.8834C49.6566 32.9929 49.8194 33.1416 49.9452 33.3196C50.0716 33.4976 50.1578 33.7006 50.199 33.915Z" fill="url(#paint0_linear)"/>
<path d="M46.1482 37.0658C46.1482 37.1558 46.1471 37.2459 46.1439 37.3359C46.1413 37.4245 46.1371 37.5145 46.1313 37.6031V37.6103C46.1254 37.6874 46.1202 37.766 46.1128 37.8432L46.1085 37.8989C46.1069 37.9075 46.1069 37.9175 46.1059 37.9261C46.0985 37.9947 46.09 38.0633 46.0816 38.1318C46.0816 38.1361 46.08 38.1404 46.08 38.1447C46.0699 38.2233 46.0588 38.3019 46.0456 38.3791C46.043 38.4034 46.0387 38.4262 46.0345 38.4505C46.0329 38.4649 46.0303 38.4805 46.0271 38.4948C46.0271 38.4956 46.0271 38.4964 46.0271 38.4971C46.0266 38.4979 46.0266 38.4986 46.026 38.4991V38.5034C46.007 38.6134 45.9873 38.722 45.9631 38.8292C45.9531 38.8778 45.9417 38.9264 45.9303 38.975C45.916 39.0364 45.9017 39.0979 45.8861 39.1579C44.7138 39.753 43.4178 40.062 42.1037 40.0596C42.0267 40.0596 41.9511 40.0582 41.8742 40.0568C41.8485 40.0553 41.8214 40.0553 41.7943 40.0539H41.7815L41.6147 40.0453C41.5876 40.0439 41.5591 40.0425 41.532 40.0396C41.4992 40.0382 41.4679 40.0353 41.435 40.0324C41.3837 40.0296 41.331 40.0239 41.2796 40.0196C41.2639 40.0182 41.2483 40.0168 41.2326 40.0139C41.2169 40.0139 41.2012 40.011 41.1841 40.0096C41.167 40.0082 41.147 40.0053 41.13 40.0024C41.1256 40.0034 41.1211 40.0029 41.1171 40.001C41.0843 39.9982 41.0515 39.9939 41.0187 39.9896L40.9275 39.9767C40.8847 39.9725 40.8434 39.9653 40.802 39.9581C40.7535 39.951 40.7065 39.9439 40.6595 39.9339C40.658 39.9344 40.6565 39.9345 40.655 39.9342C40.6535 39.934 40.6521 39.9333 40.6509 39.9324C40.5867 39.9224 40.524 39.911 40.4627 39.8982C40.4554 39.8969 40.4483 39.895 40.4413 39.8924C40.432 39.8921 40.4229 39.8901 40.4142 39.8867C40.3472 39.8738 40.2803 39.8596 40.2146 39.8453C40.2049 39.8422 40.1948 39.8398 40.1847 39.8381C40.1563 39.8325 40.1282 39.8253 40.1006 39.8167C40.0407 39.8024 39.9808 39.7867 39.9224 39.771C39.854 39.7538 39.7869 39.7352 39.7199 39.7152V39.7138C39.7177 39.7128 39.7152 39.7123 39.7128 39.7124H39.7108L39.7094 39.7109H39.7079C39.7057 39.7099 39.7033 39.7094 39.7008 39.7095L39.6994 39.7081C39.564 39.6681 39.4314 39.6252 39.2988 39.578C39.1838 39.3595 39.1236 39.1162 39.1234 38.8692V34.2006C39.1235 33.9336 39.1936 33.6713 39.3267 33.4401C39.4598 33.2088 39.6513 33.0167 39.8819 32.883L43.4091 30.8423C43.4348 30.8667 43.4604 30.8895 43.486 30.9153C43.5359 30.961 43.5844 31.0067 43.6315 31.0538L43.6329 31.0553C43.6329 31.0567 43.6329 31.0567 43.6343 31.0581C43.6828 31.1053 43.7299 31.1539 43.7769 31.2025C43.8239 31.2511 43.871 31.2997 43.9166 31.3496C43.9622 31.3997 44.0093 31.4511 44.0535 31.5026C44.0963 31.5497 44.1376 31.5969 44.1775 31.6455C44.1889 31.6598 44.2004 31.6726 44.2117 31.6869C44.2303 31.7084 44.2474 31.7298 44.2645 31.7512L44.3158 31.8155C44.3586 31.8684 44.3999 31.9227 44.4413 31.977L44.4669 32.0113C44.4798 32.0285 44.4926 32.0442 44.504 32.0613C44.534 32.1028 44.5639 32.1428 44.5924 32.1842C44.6019 32.1954 44.6105 32.2074 44.6181 32.2199C44.6337 32.2414 44.6494 32.2628 44.6651 32.2857C44.7164 32.3614 44.7663 32.4357 44.8162 32.5129C44.8562 32.5772 44.8975 32.6415 44.936 32.7073C44.946 32.723 44.956 32.7387 44.9645 32.7544C44.9802 32.7787 44.9945 32.8044 45.0087 32.8302C45.013 32.8359 45.0158 32.8416 45.0201 32.8473C45.0301 32.8644 45.0401 32.8816 45.0486 32.8987C45.07 32.9345 45.09 32.9716 45.1099 33.0088C45.177 33.1288 45.2397 33.2503 45.2996 33.3746C45.3053 33.3875 45.3124 33.4003 45.3181 33.4118C45.3197 33.4157 45.3216 33.4196 45.3238 33.4232C45.3452 33.4661 45.3651 33.5118 45.3851 33.5561C45.3865 33.5575 45.3865 33.5604 45.388 33.5618C45.3922 33.5718 45.3965 33.5804 45.4008 33.5904C45.4222 33.6376 45.4421 33.6833 45.4635 33.7305L45.4721 33.7519C45.4934 33.8019 45.5149 33.8519 45.5348 33.9034C45.5448 33.9276 45.5548 33.9533 45.5647 33.9777C45.5747 34.0048 45.5861 34.032 45.5961 34.0591V34.0606C45.616 34.1106 45.6332 34.1591 45.6517 34.2091C45.652 34.2126 45.6529 34.216 45.6545 34.2192C45.6602 34.2349 45.6674 34.2506 45.6717 34.2663C45.6902 34.3121 45.7059 34.3592 45.7201 34.4064C45.7244 34.4178 45.7273 34.4278 45.7301 34.4378C45.733 34.4478 45.7358 34.4536 45.7386 34.4621C45.7515 34.4979 45.7615 34.5336 45.7729 34.5707C45.7743 34.5736 45.7743 34.5779 45.7758 34.5807C45.78 34.595 45.7843 34.6079 45.7886 34.6222C45.7911 34.6286 45.793 34.6353 45.7943 34.6422C45.8014 34.6622 45.8071 34.6836 45.8128 34.7051L45.8342 34.7779C45.8399 34.7994 45.8456 34.8208 45.8513 34.8408C45.8641 34.8866 45.8755 34.9308 45.8869 34.9751C45.8898 34.9837 45.8912 34.9923 45.8941 35.0023C45.9054 35.048 45.9154 35.0938 45.9269 35.1409C45.9295 35.1493 45.9314 35.1579 45.9326 35.1666C45.9397 35.1923 45.9454 35.2195 45.9511 35.2452C45.9511 35.2481 45.9525 35.2509 45.9525 35.2552C45.9537 35.2585 45.9546 35.2619 45.9554 35.2652C45.9611 35.2924 45.9668 35.3209 45.9725 35.3481V35.351C45.9825 35.3967 45.9924 35.4424 46.0012 35.4881C46.0097 35.5339 46.0165 35.5753 46.0239 35.6196C46.0324 35.6696 46.0408 35.7182 46.0482 35.7683C46.0594 35.8383 46.0694 35.9097 46.0779 35.9797C46.0853 36.0312 46.0921 36.084 46.0964 36.1355C46.0985 36.1483 46.1001 36.1611 46.1006 36.1741C46.1038 36.1998 46.1064 36.2241 46.108 36.2498L46.1122 36.2927C46.1165 36.3313 46.1191 36.3699 46.1223 36.4099C46.1239 36.4313 46.1249 36.4513 46.1265 36.4727C46.1291 36.5056 46.1307 36.5399 46.1334 36.5728C46.1365 36.6314 46.1392 36.69 46.1408 36.7486C46.1434 36.78 46.1434 36.8129 46.145 36.8458C46.1471 36.9186 46.1482 36.9915 46.1482 37.0658Z" fill="url(#paint1_linear)"/>
<path d="M50.226 34.2008V38.8695C50.226 39.1363 50.1562 39.3986 50.0235 39.6299C49.8908 39.8611 49.6994 40.0533 49.4689 40.187L45.4327 42.5205C45.2289 42.6392 45.0002 42.7081 44.765 42.7219C44.5298 42.7357 44.2947 42.6943 44.0783 42.6005C44.0227 42.5783 43.9689 42.5512 43.9172 42.5205L43.6777 42.3822H43.6763L39.8819 40.187C39.6349 40.0423 39.433 39.8315 39.2988 39.5782C39.4314 39.6254 39.564 39.6683 39.6994 39.7083L39.7008 39.7097C39.7033 39.7096 39.7058 39.7101 39.708 39.7111C39.7091 39.7112 39.7101 39.7118 39.7108 39.7126H39.7123C39.7148 39.7125 39.7172 39.713 39.7194 39.714V39.7154C39.7864 39.7354 39.8534 39.754 39.9218 39.7712C39.9889 39.7912 40.0559 39.8083 40.1243 39.8226C40.1543 39.8312 40.1842 39.8383 40.2141 39.8455C40.2897 39.8626 40.3638 39.8798 40.4408 39.8926C40.4477 39.8952 40.4549 39.8971 40.4622 39.8984C40.5264 39.9126 40.592 39.9241 40.6589 39.9341C40.7174 39.9455 40.7773 39.9555 40.8372 39.9641C40.86 39.9684 40.8842 39.9712 40.9084 39.9741C40.9811 39.9855 41.0553 39.9956 41.1294 40.0027C41.1579 40.0069 41.1865 40.0098 41.2135 40.0127C41.2948 40.0213 41.3775 40.0298 41.4588 40.0341C41.4705 40.0365 41.4824 40.0374 41.4944 40.0369C41.5942 40.0455 41.694 40.0513 41.7938 40.0541C41.8965 40.0584 41.9991 40.0598 42.1032 40.0598C43.4173 40.0622 44.7132 39.7532 45.8856 39.1581C45.887 39.1581 45.887 39.1567 45.8884 39.1567C46.0853 39.0581 46.2766 38.9514 46.4627 38.8366C46.5045 38.8123 46.5458 38.7866 46.5854 38.7609C46.6039 38.7494 46.6224 38.738 46.6414 38.7251C46.66 38.7123 46.6769 38.7023 46.6954 38.6894C46.7382 38.6622 46.7794 38.6337 46.8223 38.6051C46.8254 38.6037 46.8281 38.6017 46.8307 38.5993C46.8809 38.5665 46.9291 38.5322 46.9777 38.4965C46.9872 38.4908 46.9962 38.4846 47.0047 38.4779C47.0163 38.4693 47.0274 38.4622 47.039 38.4522C47.1072 38.4036 47.1744 38.3536 47.2415 38.3007C47.2769 38.2735 47.3139 38.2449 47.3499 38.2149C47.3753 38.195 47.4028 38.1735 47.4281 38.1521C47.4466 38.1363 47.4652 38.1221 47.4837 38.1049C47.4953 38.0963 47.5064 38.0878 47.518 38.0778C47.6322 37.9806 47.7417 37.882 47.85 37.7819C47.9003 37.7348 47.95 37.6862 47.997 37.6391C48.1451 37.4933 48.2873 37.3428 48.4231 37.1875C48.4475 37.1603 48.4702 37.1332 48.4929 37.106C48.5247 37.0717 48.5532 37.036 48.5828 37.0003C48.6003 36.9788 48.6188 36.9574 48.6357 36.9359C48.6457 36.9246 48.6542 36.9131 48.6626 36.9017C48.6859 36.8731 48.7086 36.8445 48.7298 36.8159C48.7515 36.7902 48.771 36.7631 48.7927 36.7359C48.8012 36.723 48.8112 36.7102 48.8213 36.6973C48.8424 36.6702 48.8625 36.643 48.8826 36.6144C48.9592 36.5101 49.0333 36.4044 49.1046 36.2958C49.1374 36.2472 49.1691 36.1986 49.2003 36.1486C49.2458 36.0771 49.2902 36.0057 49.333 35.9328C49.3616 35.8856 49.3901 35.837 49.4171 35.7884C49.5255 35.597 49.6265 35.4007 49.7206 35.1997C49.738 35.1625 49.7565 35.124 49.7718 35.0854C49.8247 34.9711 49.8734 34.8567 49.9188 34.7395L49.9786 34.5852C49.9944 34.5424 50.0103 34.5009 50.0246 34.4581C50.0256 34.4552 50.0272 34.4509 50.0288 34.448C50.0299 34.4446 50.0314 34.4413 50.033 34.438C50.0346 34.4352 50.0357 34.4337 50.0357 34.4323V34.4309C50.0404 34.4193 50.0441 34.4073 50.0473 34.3951C50.0499 34.3894 50.0515 34.3837 50.0542 34.3766C50.0674 34.3408 50.0785 34.3051 50.0901 34.268C50.1002 34.2408 50.1086 34.2122 50.1187 34.1837C50.1229 34.1708 50.1271 34.1565 50.1298 34.1436C50.1324 34.1388 50.1345 34.1334 50.1356 34.1279C50.1567 34.0579 50.1784 33.9865 50.1985 33.915C50.217 34.0091 50.226 34.1049 50.226 34.2008Z" fill="url(#paint2_linear)"/>
<g style="mix-blend-mode:multiply" opacity="0.15">
<g style="mix-blend-mode:multiply" opacity="0.15">
<g style="mix-blend-mode:multiply" opacity="0.15">
<path d="M46.1482 37.0658C46.1493 37.7715 46.0615 38.4744 45.8861 39.1579C44.041 40.0903 41.9179 40.3085 39.9224 39.771C42.1593 39.9239 47.8549 39.5409 43.4096 30.8423C44.2737 31.631 44.9637 32.5921 45.4354 33.6639C45.907 34.7356 46.1498 35.8944 46.1482 37.0658Z" fill="black"/>
</g>
</g>
</g>
<g style="mix-blend-mode:multiply" opacity="0.15">
<g style="mix-blend-mode:multiply" opacity="0.15">
<g style="mix-blend-mode:multiply" opacity="0.15">
<path d="M50.1991 33.9148C49.8813 35.0399 49.3346 36.0867 48.5929 36.989C47.8506 37.8913 46.9301 38.6294 45.8889 39.1565C45.9845 39.0808 48.9397 36.7186 49.1327 32.6887L49.4689 32.883C49.6571 32.9926 49.82 33.1414 49.9458 33.3194C50.0716 33.4974 50.1578 33.7005 50.1991 33.9148Z" fill="black"/>
</g>
</g>
</g>
<g style="mix-blend-mode:multiply" opacity="0.25">
<g style="mix-blend-mode:multiply" opacity="0.25">
<g style="mix-blend-mode:multiply" opacity="0.25">
<path d="M50.0294 34.4481C49.304 36.4924 47.821 38.1785 45.8889 39.1567C45.8882 39.1576 45.8872 39.158 45.8861 39.1581C44.041 40.0905 41.9178 40.3088 39.9224 39.7712C39.8539 39.7526 39.7869 39.734 39.7199 39.7155C39.717 39.714 39.7142 39.714 39.7128 39.7126C39.7153 39.7125 39.7177 39.713 39.7199 39.714C39.7784 39.7269 39.958 39.7698 40.2374 39.8212C40.7103 39.9086 41.1895 39.9569 41.6703 39.9655C41.8186 39.9698 41.9739 39.9684 42.1322 39.9641C42.2948 39.9584 42.4601 39.9498 42.6284 39.937C42.9822 39.9055 43.334 39.854 43.6819 39.7826C44.0538 39.7055 44.4201 39.6033 44.7783 39.4768C45.147 39.3485 45.5063 39.1943 45.8533 39.0152C45.8789 39.0024 45.9046 38.9881 45.9303 38.9752C46.2518 38.8057 46.5632 38.6172 46.8625 38.4108C47.1728 38.191 47.4705 37.9538 47.7538 37.7005C48.0156 37.4598 48.2635 37.2045 48.4967 36.936C48.7203 36.6788 48.9127 36.4215 49.0851 36.1786C49.2522 35.9314 49.3976 35.6999 49.5202 35.4898C49.5773 35.3826 49.6328 35.2826 49.6825 35.1911C49.7312 35.0968 49.7713 35.0096 49.8094 34.931C49.8882 34.7739 49.9395 34.6467 49.9791 34.5609C50.0019 34.508 50.0188 34.4695 50.0294 34.4481Z" fill="black"/>
</g>
</g>
</g>
<g style="mix-blend-mode:multiply" opacity="0.25">
<g style="mix-blend-mode:multiply" opacity="0.25">
<g style="mix-blend-mode:multiply" opacity="0.25">
<path d="M46.0498 38.1606C46.063 37.9377 46.0741 37.6204 46.0657 37.2417C46.0615 37.0531 46.0414 36.8502 46.0313 36.6287C46.007 36.4158 45.9859 36.1914 45.9474 35.9585C45.9317 35.8413 45.9117 35.7241 45.886 35.6055C45.8604 35.4869 45.839 35.3669 45.8091 35.2468C45.7549 35.0053 45.685 34.7652 45.6095 34.5266L45.4897 34.1708C45.4441 34.055 45.3985 33.9392 45.3543 33.8249C45.3044 33.712 45.2559 33.5992 45.2074 33.4891C45.1589 33.3791 45.1019 33.2733 45.052 33.1662C45.0021 33.059 44.9422 32.9603 44.8895 32.8603C44.8367 32.7603 44.7825 32.6632 44.7255 32.5717C44.6157 32.3845 44.5031 32.2144 44.399 32.0558C44.2893 31.9029 44.1909 31.7586 44.0968 31.6357C44.0013 31.5156 43.9228 31.4056 43.8501 31.3198C43.7304 31.1741 43.6534 31.0812 43.6334 31.0569C44.6018 32.0109 45.3254 33.1858 45.7422 34.4811C46.1593 35.7764 46.2571 37.1536 46.0271 38.495C46.0303 38.4565 46.0398 38.3392 46.0498 38.1606Z" fill="black"/>
</g>
</g>
</g>
<g style="mix-blend-mode:screen" opacity="0.4">
<g style="mix-blend-mode:screen" opacity="0.4">
<g style="mix-blend-mode:screen" opacity="0.4">
<path d="M46.3538 31.0813C46.3327 31.0712 46.1873 30.9984 45.9463 30.8726C45.8151 30.804 45.6582 30.7183 45.4758 30.6311C45.2764 30.5308 45.0621 30.4632 44.8414 30.431C44.5847 30.4045 44.3257 30.4495 44.0928 30.5611C43.8832 30.6655 43.6808 30.7839 43.4869 30.9155C43.4766 30.9212 43.4667 30.9274 43.457 30.934C43.4128 30.9612 43.3671 30.9898 43.3215 31.0169C42.7812 31.3413 42.201 31.68 41.6207 32.0187C41.3284 32.1859 41.0376 32.3517 40.751 32.516C40.4673 32.6846 40.1707 32.8333 39.9155 32.9976C39.6689 33.1438 39.4694 33.3581 39.341 33.6149C39.2416 33.8555 39.1907 34.1134 39.1913 34.3738C39.1856 34.6238 39.1785 34.8582 39.1699 35.0625C39.1613 35.2669 39.1542 35.4469 39.1485 35.5941C39.1357 35.8885 39.1243 36.0557 39.1243 36.0557V34.2008C39.1243 33.9338 39.1944 33.6716 39.3276 33.4403C39.4607 33.209 39.6522 33.0169 39.8827 32.8833L43.4099 30.8426L43.9169 30.5484C44.1475 30.4156 44.4088 30.3458 44.6747 30.3458C44.9406 30.3458 45.2018 30.4156 45.4324 30.5484L46.349 31.0785C46.3512 31.079 46.3527 31.0799 46.3538 31.0813Z" fill="white"/>
</g>
</g>
</g>
<g style="mix-blend-mode:multiply" opacity="0.25">
<g style="mix-blend-mode:multiply" opacity="0.25">
<g style="mix-blend-mode:multiply" opacity="0.25">
<path d="M50.226 35.5081V38.8692C50.226 39.1361 50.1562 39.3983 50.0235 39.6295C49.8908 39.8609 49.6994 40.053 49.4689 40.1868L45.4327 42.5203C45.2289 42.639 45.0002 42.7078 44.765 42.7216C44.5298 42.7354 44.2947 42.6941 44.0783 42.6003C44.0227 42.578 43.9689 42.551 43.9172 42.5203L43.6777 42.3819C43.692 42.3888 43.7077 42.3973 43.7262 42.4074C43.8018 42.4461 43.9129 42.5017 44.057 42.5605C44.2288 42.6326 44.4125 42.6718 44.5987 42.6761C44.8368 42.6739 45.0711 42.6162 45.2831 42.5075C45.5183 42.3931 45.7621 42.2288 46.0303 42.0714C46.2951 41.9114 46.5748 41.743 46.8656 41.5686C47.4445 41.2213 48.0673 40.8598 48.6907 40.4954C49.0031 40.3325 49.3055 40.1507 49.5958 39.9509C49.8517 39.7515 50.024 39.4636 50.079 39.1435C50.1224 38.8268 50.1414 38.5072 50.1361 38.1875C50.1435 37.8774 50.1504 37.5845 50.1562 37.313C50.1705 36.7714 50.1916 36.3212 50.2017 36.004C50.2175 35.6881 50.226 35.5081 50.226 35.5081Z" fill="black"/>
</g>
</g>
</g>
<g style="mix-blend-mode:screen" opacity="0.4">
<g style="mix-blend-mode:screen" opacity="0.4">
<g style="mix-blend-mode:screen" opacity="0.4">
<path d="M39.7195 39.7139V39.7153C39.7158 39.7141 39.7121 39.7128 39.7085 39.7111C39.7123 39.7116 39.716 39.7125 39.7195 39.7139Z" fill="white"/>
</g>
</g>
</g>
<g style="mix-blend-mode:screen" opacity="0.4">
<g style="mix-blend-mode:screen" opacity="0.4">
<g style="mix-blend-mode:screen" opacity="0.4">
<path d="M50.0362 34.4323C50.0335 34.4423 50.0193 34.4879 49.9933 34.5666C49.9622 34.6552 49.9294 34.7909 49.8606 34.9524C49.8279 35.0339 49.7951 35.1267 49.7538 35.2239C49.7126 35.3211 49.664 35.4268 49.6143 35.5383C49.5614 35.6498 49.5001 35.7655 49.4387 35.8899C49.3748 36.0128 49.2976 36.1357 49.222 36.2671C49.1421 36.3957 49.057 36.53 48.964 36.6644C48.8672 36.7973 48.7731 36.9373 48.6605 37.0717C48.4342 37.3592 48.1884 37.6309 47.9246 37.8848C47.6407 38.1555 47.3388 38.4066 47.021 38.6364C46.6906 38.869 46.3453 39.0795 45.9872 39.2666C45.6254 39.4505 45.2509 39.6081 44.8666 39.7382C44.4956 39.8631 44.1158 39.9601 43.7303 40.0283C43.3706 40.0943 43.0066 40.1344 42.6411 40.1484C42.4657 40.1555 42.2961 40.1583 42.135 40.1541C41.9696 40.1498 41.8128 40.1412 41.6616 40.1298C41.1758 40.0895 40.6948 40.0043 40.2245 39.8754C40.0549 39.8311 39.9251 39.7854 39.8353 39.7554C39.7797 39.7368 39.7412 39.7225 39.7198 39.7154C41.7843 40.3258 44.0037 40.1199 45.9213 39.1401C47.8389 38.1603 49.3092 36.4811 50.0293 34.4479C50.0304 34.4445 50.0319 34.4412 50.0335 34.438C50.0346 34.4352 50.0362 34.4337 50.0362 34.4323Z" fill="white"/>
</g>
</g>
</g>
<g style="mix-blend-mode:screen" opacity="0.4">
<g style="mix-blend-mode:screen" opacity="0.4">
<g style="mix-blend-mode:screen" opacity="0.4">
<path d="M46.2424 36.6242C46.2413 36.8414 46.2424 37.0515 46.2281 37.2444C46.2085 37.5546 46.1673 37.863 46.106 38.1676C46.06 38.3862 46.0261 38.5091 46.0261 38.5091V38.4991C46.0266 38.4985 46.0266 38.4979 46.0272 38.4971C46.0272 38.4964 46.0272 38.4956 46.0272 38.4948C46.0346 38.4563 46.0399 38.4176 46.0457 38.3791C46.0589 38.3019 46.07 38.2233 46.08 38.1447C46.08 38.1404 46.0816 38.1361 46.0816 38.1318C46.0917 38.0547 46.1001 37.9761 46.1086 37.8989L46.1128 37.8432C46.1197 37.766 46.1255 37.6874 46.1313 37.6102V37.6031C46.1371 37.5145 46.1414 37.4245 46.144 37.3359C46.1472 37.2473 46.1483 37.1558 46.1483 37.0658C46.1483 36.8457 46.1398 36.6271 46.1229 36.4099C46.1186 36.3556 46.1144 36.3027 46.1086 36.2498C46.1012 36.1598 46.0917 36.0698 46.0785 35.9797C46.07 35.9097 46.06 35.8382 46.0489 35.7682C46.0415 35.7182 46.033 35.6696 46.0245 35.6196C46.0103 35.5296 45.9931 35.4381 45.9731 35.3481C45.9589 35.2781 45.9446 35.2095 45.9275 35.1409C45.9147 35.0852 45.9018 35.0294 45.8875 34.9751C45.8648 34.8851 45.8405 34.7951 45.8134 34.705C45.802 34.6622 45.7892 34.6222 45.7764 34.5807C45.7621 34.5321 45.7479 34.485 45.7307 34.4378C45.7279 34.4278 45.725 34.4178 45.7207 34.4064C45.7008 34.3435 45.6794 34.2806 45.6552 34.2192C45.6181 34.1134 45.5782 34.0077 45.5354 33.9033C45.5155 33.8519 45.4941 33.8019 45.4727 33.7519C45.447 33.689 45.4185 33.6247 45.3886 33.5618C45.3615 33.4989 45.3315 33.4375 45.3002 33.3746C45.2403 33.2503 45.1776 33.1288 45.1106 33.0087C45.055 32.9059 44.9979 32.8058 44.9366 32.7073C44.7497 32.3966 44.5426 32.0987 44.3164 31.8155C44.2836 31.7727 44.248 31.7298 44.2124 31.6869C44.201 31.6726 44.1895 31.6598 44.1781 31.6455C44.1382 31.5969 44.0969 31.5497 44.0541 31.5026C44.0099 31.4511 43.9643 31.3997 43.9173 31.3497C43.8731 31.2997 43.826 31.2511 43.7775 31.2025C43.7319 31.1525 43.6834 31.1053 43.6349 31.0581C43.6335 31.0567 43.6321 31.0553 43.6321 31.0538C43.6535 31.071 43.7447 31.1525 43.8916 31.2811C44.1183 31.4928 44.3316 31.7186 44.5303 31.957C44.65 32.1085 44.7812 32.2714 44.9038 32.4557C44.9694 32.5457 45.0321 32.6415 45.092 32.7416C45.1519 32.8416 45.2175 32.9402 45.2731 33.0474C45.3914 33.2589 45.5055 33.4832 45.6081 33.7161C45.6552 33.8347 45.7037 33.9533 45.7521 34.0734C45.7949 34.1949 45.8376 34.3163 45.8804 34.4392C45.956 34.6864 46.0245 34.9365 46.0774 35.1866C46.106 35.3092 46.1292 35.4332 46.1456 35.5582C46.1683 35.6811 46.1842 35.804 46.1953 35.924C46.2281 36.1642 46.2328 36.4013 46.2424 36.6242Z" fill="white"/>
</g>
</g>
</g>
<path d="M35.951 18.0317C35.952 19.5609 35.7561 21.0837 35.3681 22.5625C34.989 24.0131 34.4338 25.4116 33.715 26.7266C33.3129 27.457 32.8587 28.1575 32.3559 28.8224C32.3363 28.8565 32.3219 28.8754 32.3174 28.8879L32.3128 28.8925C31.9212 29.41 31.5029 29.9067 31.0596 30.3805C30.4308 31.0507 29.7509 31.6708 29.0262 32.2352C29.0262 32.2352 23.8113 35.9887 17.5562 35.9887L16.5297 35.9932L12.1395 36.0221V23.8914H17.9901C18.7605 23.8977 19.5239 23.7429 20.2313 23.4369C20.9287 23.1399 21.5633 22.7123 22.1007 22.1768C22.6367 21.6363 23.0624 20.9963 23.354 20.2925C23.6608 19.5789 23.815 18.8087 23.8067 18.0317C23.8094 17.6377 23.7721 17.2445 23.6956 16.8581C23.6931 16.8536 23.6916 16.8487 23.6911 16.8437C23.6183 16.4718 23.5053 16.109 23.354 15.7617C22.7614 14.3451 21.6385 13.2179 20.2261 12.622C19.5206 12.3156 18.7589 12.161 17.9901 12.1681H12.1395C12.1386 8.94129 10.8595 5.84693 8.58311 3.56516C6.30682 1.28344 3.21976 0.00111331 0.000488281 5.345e-05H17.9901C19.604 -0.00392102 21.2109 0.213775 22.7659 0.647151C24.2648 1.06627 25.7032 1.6785 27.045 2.46852C27.5273 2.75341 27.9944 3.06252 28.4479 3.39129L28.4858 3.41487C30.5167 4.89226 32.22 6.77547 33.4883 8.9458C34.2755 10.2931 34.8863 11.7364 35.3054 13.2402C35.7375 14.8004 35.9547 16.4125 35.951 18.0317Z" fill="url(#paint3_linear)"/>
<path d="M34.0041 44H21.0118L18.964 39.2515L17.5546 35.9867C23.8097 35.9867 29.0245 32.2332 29.0245 32.2332L30.5182 35.7699L30.7796 36.3835C30.7796 36.3881 30.7848 36.3881 30.7848 36.3927L34.0041 44Z" fill="url(#paint4_linear)"/>
<path d="M12.1395 12.168V43.998H0.000488281V0C3.21976 0.00105986 6.30682 1.28338 8.58311 3.5651C10.8595 5.84688 12.1386 8.94124 12.1395 12.168Z" fill="url(#paint5_linear)"/>
<g style="mix-blend-mode:multiply" opacity="0.16">
<g style="mix-blend-mode:multiply" opacity="0.16">
<g style="mix-blend-mode:multiply" opacity="0.16">
<path d="M12.1395 12.168C12.1386 8.94124 10.8595 5.84687 8.58311 3.5651C6.30682 1.28338 3.21976 0.00105986 0.000488281 0H10.9927C13.4457 2.29947 15.8025 6.06733 16.3853 12.168H12.1395Z" fill="black"/>
</g>
</g>
</g>
<g style="mix-blend-mode:multiply" opacity="0.16">
<g style="mix-blend-mode:multiply" opacity="0.16">
<g style="mix-blend-mode:multiply" opacity="0.16">
<path d="M16.53 23.8912V35.9911L12.1398 36.0199V23.8912H16.53Z" fill="black"/>
</g>
</g>
</g>
<g style="mix-blend-mode:multiply" opacity="0.16">
<g style="mix-blend-mode:multiply" opacity="0.16">
<g style="mix-blend-mode:multiply" opacity="0.16">
<path d="M30.5201 35.7692C26.9248 37.6578 23.0023 38.8398 18.964 39.2515L17.5546 35.9867C23.8097 35.9867 29.0245 32.2332 29.0245 32.2332L30.5201 35.7692Z" fill="black"/>
</g>
</g>
</g>
<g style="mix-blend-mode:multiply" opacity="0.25">
<g style="mix-blend-mode:multiply" opacity="0.25">
<g style="mix-blend-mode:multiply" opacity="0.25">
<path d="M35.9512 18.0316C35.9523 19.5607 35.7564 21.0836 35.3684 22.5625C34.9893 24.013 34.4341 25.4115 33.7152 26.7265C33.3132 27.4569 32.859 28.1574 32.3562 28.8223C32.443 28.6821 32.6548 28.3442 32.939 27.8275C33.4584 26.8858 33.9047 25.9055 34.2739 24.8953C34.7899 23.4813 35.1442 22.0131 35.3298 20.5191C35.4263 19.6821 35.4713 18.84 35.4644 17.9975C35.4559 17.1273 35.3852 16.2588 35.2527 15.3988C35.1271 14.5386 34.9368 13.6891 34.6836 12.8577C34.439 12.0514 34.1446 11.261 33.8022 10.4914C33.4756 9.7706 33.1087 9.06892 32.7031 8.38966C32.3111 7.74717 31.9034 7.15317 31.5028 6.62658C30.8515 5.7717 30.1344 4.96917 29.3583 4.22626C28.7951 3.68007 28.4481 3.39056 28.4481 3.39056L28.486 3.41415C30.517 4.89148 32.2203 6.77475 33.4885 8.94507C34.2758 10.2923 34.8866 11.7357 35.3057 13.2395C35.7378 14.7999 35.955 16.4122 35.9512 18.0316Z" fill="black"/>
</g>
</g>
</g>
<g style="mix-blend-mode:multiply" opacity="0.25">
<g style="mix-blend-mode:multiply" opacity="0.25">
<g style="mix-blend-mode:multiply" opacity="0.25">
<path d="M34.004 44H24.3126C25.1222 43.8792 25.9272 43.8066 26.7368 43.7377C27.5463 43.6688 28.3513 43.6216 29.1544 43.5835C29.9574 43.5448 30.7735 43.5257 31.5785 43.5104L33.2552 43.496C33.0912 43.0906 32.9285 42.6847 32.7736 42.274C32.5181 41.6322 32.277 40.9897 32.0457 40.3374C31.8144 39.6851 31.5883 39.0334 31.3708 38.3726C31.1532 37.7118 30.9565 37.0542 30.7827 36.3875L34.004 44Z" fill="black"/>
</g>
</g>
</g>
<g style="mix-blend-mode:screen" opacity="0.7">
<g style="mix-blend-mode:screen" opacity="0.7">
<g style="mix-blend-mode:screen" opacity="0.7">
<path d="M0.506186 22.0025C0.501639 23.3778 0.496404 24.7532 0.487258 26.1037C0.478112 27.4542 0.457863 28.7889 0.443482 30.0791C0.410174 32.6583 0.356565 35.0639 0.289262 37.1262C0.169036 41.2523 0.000488281 43.9995 0.000488281 43.9995V0C0.000488281 0 0.169036 2.75071 0.289262 6.87351C0.354609 8.93658 0.410174 11.3415 0.443482 13.9213C0.457863 15.2108 0.487258 16.5443 0.487258 17.8967C0.487258 19.2492 0.500317 20.6258 0.506186 22.0025Z" fill="black"/>
</g>
</g>
</g>
<g style="mix-blend-mode:multiply" opacity="0.25">
<g style="mix-blend-mode:multiply" opacity="0.25">
<g style="mix-blend-mode:multiply" opacity="0.25">
<path d="M24.0285 18.9785C24.0102 19.3397 23.9522 19.6977 23.8553 20.0461C23.8024 20.2295 23.7345 20.4325 23.6717 20.606C23.5987 20.8014 23.5136 20.9919 23.4169 21.1765C23.217 21.5684 22.9711 21.9349 22.6844 22.2683C22.3877 22.6109 22.0547 22.9201 21.6913 23.1904C21.3196 23.451 20.9225 23.6729 20.506 23.8526C20.1028 24.0238 19.6804 24.1453 19.2482 24.2148C18.8467 24.2798 18.4391 24.2976 18.0335 24.2678C17.6676 24.2488 17.3304 24.2148 17.0122 24.1807C15.7544 24.0602 14.9154 23.8912 14.9154 23.8912H17.9903C18.7608 23.8975 19.5241 23.7428 20.2315 23.4367C20.929 23.1397 21.5635 22.7121 22.101 22.1766C22.6369 21.6361 23.0626 20.9961 23.3542 20.2923C23.661 19.5787 23.8153 18.8085 23.807 18.0315C23.8096 17.6375 23.7724 17.2443 23.6959 16.8578C23.773 17.0342 23.8344 17.217 23.8795 17.4041C24.0062 17.9187 24.0564 18.4492 24.0285 18.9785Z" fill="black"/>
</g>
</g>
</g>
<g style="mix-blend-mode:screen" opacity="0.7">
<g style="mix-blend-mode:screen" opacity="0.7">
<g style="mix-blend-mode:screen" opacity="0.7">
<path d="M12.1396 12.1676V43.9977C12.1396 43.9977 12.0965 43.2012 12.0482 41.8093C11.9998 40.4176 11.9175 38.4233 11.8652 36.0373C11.7999 33.6508 11.7496 30.8634 11.7156 27.8788C11.7012 26.3862 11.6869 24.8452 11.6725 23.2753C11.6581 21.7054 11.6626 20.1165 11.6581 18.527C11.6535 16.9375 11.6672 15.3388 11.677 13.7742C11.6725 12.9961 11.6966 12.2023 11.6725 11.4701C11.6384 10.7415 11.5352 10.0178 11.364 9.30883C11.0402 7.95645 10.4858 6.67031 9.72529 5.5069C8.44305 3.55803 6.63258 2.01647 4.50654 1.06318C3.75167 0.723598 2.96323 0.464569 2.15427 0.290381C1.63071 0.1774 1.10127 0.0934062 0.568453 0.0388764C0.197309 0.0146586 0 0.000244141 0 0.000244141C3.21928 0.00125101 6.30638 1.28363 8.58262 3.56535C10.859 5.84712 12.1382 8.94148 12.139 12.1683L12.1396 12.1676Z" fill="black"/>
</g>
</g>
</g>
<defs>
<linearGradient id="paint0_linear" x1="46.8043" y1="38.8145" x2="46.8043" y2="31.6676" gradientUnits="userSpaceOnUse">
<stop stop-color="#EB7A81"/>
<stop offset="1" stop-color="#F8D2D5"/>
</linearGradient>
<linearGradient id="paint1_linear" x1="45.4459" y1="37.9304" x2="39.1076" y2="35.4829" gradientUnits="userSpaceOnUse">
<stop stop-color="#DE212D"/>
<stop offset="1" stop-color="#EB7A81"/>
</linearGradient>
<linearGradient id="paint2_linear" x1="48.8493" y1="36.2231" x2="44.0738" y2="42.2633" gradientUnits="userSpaceOnUse">
<stop stop-color="#DE212D"/>
<stop offset="1" stop-color="#E54D57"/>
</linearGradient>
<linearGradient id="paint3_linear" x1="35.9512" y1="18.0176" x2="2.64343" y2="18.0176" gradientUnits="userSpaceOnUse">
<stop stop-color="#F2A6AB"/>
<stop offset="0.322917" stop-color="#E75C65"/>
<stop offset="0.552083" stop-color="#E02F3A"/>
<stop offset="0.671875" stop-color="#DE212D"/>
<stop offset="1" stop-color="#B21A24"/>
</linearGradient>
<linearGradient id="paint4_linear" x1="21.9409" y1="36.5651" x2="33.852" y2="43.9592" gradientUnits="userSpaceOnUse">
<stop stop-color="#E54D57"/>
<stop offset="1" stop-color="#B21A24"/>
</linearGradient>
<linearGradient id="paint5_linear" x1="-3.98376e-05" y1="-1.60008e-07" x2="12.2127" y2="43.9695" gradientUnits="userSpaceOnUse">
<stop stop-color="#F8D2D5"/>
<stop offset="0.192708" stop-color="#EB7A81"/>
<stop offset="1" stop-color="#DE212D"/>
</linearGradient>
</defs>
</svg>
