<svg width="162" height="44" viewBox="0 0 162 44" fill="none" xmlns="http://www.w3.org/2000/svg">
<path d="M38.5027 30.1177C38.4891 30.1655 38.4748 30.2133 38.4602 30.2601C38.4595 30.2638 38.4581 30.2674 38.4563 30.2706C38.4556 30.2744 38.4545 30.2782 38.4534 30.2811C38.4517 30.2865 38.4499 30.2918 38.4488 30.2974C38.441 30.3213 38.4335 30.3442 38.4256 30.3661C38.4199 30.3834 38.4142 30.4006 38.4081 30.4168C38.4056 30.4262 38.4024 30.4355 38.3985 30.4445C38.3974 30.4507 38.3953 30.4568 38.3928 30.4627V30.4636C38.3928 30.4646 38.3921 30.4655 38.391 30.4674C38.39 30.4696 38.3889 30.4718 38.3882 30.4741C38.3871 30.4761 38.386 30.4789 38.3853 30.4808C38.3746 30.5104 38.3639 30.541 38.3525 30.5706C38.3411 30.6003 38.3293 30.6318 38.3168 30.6614C38.2958 30.7159 38.2726 30.7703 38.2498 30.8238C38.2391 30.8496 38.2273 30.8755 38.2148 30.9003C38.2045 30.9261 38.1927 30.9519 38.1802 30.9767C38.1784 30.9806 38.1767 30.9853 38.1745 30.9892C38.1478 31.0474 38.1189 31.1047 38.0889 31.1611C38.085 31.1703 38.0807 31.1793 38.0754 31.1879C38.0436 31.249 38.0112 31.3083 37.9766 31.3675C37.9755 31.3715 37.9734 31.3751 37.9705 31.378C37.9545 31.4086 37.9359 31.4382 37.9188 31.4669C37.8956 31.5061 37.8724 31.5443 37.8475 31.5825C37.8417 31.5921 37.836 31.6016 37.8293 31.6112C37.8089 31.6437 37.7868 31.6771 37.7647 31.7096C37.7215 31.7746 37.6773 31.8386 37.6302 31.9016C37.6281 31.9059 37.6249 31.9098 37.6217 31.9131C37.6145 31.9241 37.6067 31.9346 37.5985 31.9447C37.5974 31.9466 37.5956 31.9485 37.5946 31.9504C37.5878 31.9599 37.5803 31.9695 37.5735 31.9781C37.5668 31.9867 37.561 31.9953 37.5543 32.0039C37.5532 32.0058 37.5514 32.0077 37.5503 32.0096C37.5446 32.0173 37.5389 32.024 37.5322 32.0316C37.5186 32.0497 37.505 32.067 37.4908 32.0842C37.4833 32.0947 37.4751 32.105 37.4665 32.1147C37.4608 32.1224 37.4551 32.13 37.4483 32.1377C37.4416 32.1453 37.4348 32.1539 37.4284 32.1615C37.4234 32.1682 37.4177 32.1749 37.4127 32.1807L37.4109 32.1826C37.4013 32.194 37.3927 32.2055 37.3831 32.216C37.362 32.2409 37.3406 32.2657 37.3185 32.2906C37.3139 32.2963 37.3099 32.301 37.305 32.3058C37.3014 32.3109 37.2971 32.3156 37.2925 32.3202C37.2696 32.3469 37.2454 32.3727 37.2204 32.3995C37.2147 32.4062 37.209 32.4129 37.2022 32.4195C37.1955 32.4262 37.1887 32.4339 37.1819 32.4406C37.1683 32.4549 37.1551 32.4692 37.1405 32.4836C37.1345 32.491 37.1277 32.498 37.1206 32.5046C37.0877 32.539 37.0531 32.5734 37.0175 32.6078C37.0021 32.6231 36.9857 32.6393 36.9686 32.6555C36.8791 32.7415 36.7867 32.8237 36.6904 32.904C36.6879 32.9065 36.6851 32.9088 36.6818 32.9107C36.6665 32.9241 36.6501 32.9374 36.6337 32.9508C36.6201 32.9623 36.6059 32.9737 36.5912 32.9852C36.5877 32.9881 36.5838 32.9909 36.5809 32.9928C36.5566 33.0129 36.5317 33.032 36.5078 33.0502C36.4721 33.0779 36.4365 33.1046 36.4011 33.1304C36.3915 33.1381 36.3808 33.1448 36.3712 33.1515C36.3676 33.1546 36.3637 33.1575 36.3598 33.16C36.358 33.1622 36.3555 33.1638 36.353 33.1648C36.3451 33.1706 36.3377 33.1763 36.3298 33.1811C36.3059 33.1983 36.2827 33.2145 36.2585 33.2308C36.2478 33.2391 36.2367 33.2467 36.2249 33.2537C36.1961 33.2728 36.1682 33.2919 36.1393 33.3101C36.1269 33.3187 36.1154 33.3263 36.103 33.3339C36.0905 33.3416 36.0776 33.3502 36.0652 33.3578C36.048 33.3684 36.0306 33.3798 36.0134 33.3894C36.0038 33.3966 35.9935 33.403 35.9828 33.4085L35.9681 33.4171C35.9624 33.4209 35.9557 33.4247 35.9499 33.4286C35.8718 33.4744 35.793 33.5184 35.7131 33.5614C35.6807 33.5786 35.6469 33.5958 35.6132 33.6129C35.6074 33.6165 35.6013 33.6197 35.595 33.6225C35.594 33.6225 35.594 33.6235 35.5931 33.6235C35.6037 33.5833 35.6132 33.5423 35.6229 33.5012C35.6305 33.4687 35.6382 33.4362 35.645 33.4037C35.6613 33.332 35.675 33.2594 35.6874 33.1858V33.183C35.6878 33.1826 35.6878 33.1822 35.6881 33.1817C35.6881 33.1812 35.6885 33.1806 35.6881 33.1801C35.6903 33.1706 35.6921 33.16 35.6931 33.1505C35.696 33.1342 35.6989 33.119 35.7006 33.1027C35.7096 33.0511 35.717 32.9986 35.7238 32.946C35.7238 32.9432 35.7249 32.9403 35.7249 32.9374C35.7306 32.8916 35.7363 32.8457 35.7413 32.7998C35.742 32.7941 35.742 32.7874 35.7431 32.7817L35.7459 32.7444C35.7509 32.6928 35.7545 32.6403 35.7584 32.5887V32.5839C35.7623 32.5247 35.7652 32.4645 35.767 32.4052C35.7691 32.346 35.7702 32.2848 35.7702 32.2246C35.7702 32.1749 35.7691 32.1262 35.768 32.0775C35.767 32.0555 35.767 32.0345 35.7652 32.0125C35.7641 31.9733 35.7623 31.9341 35.7606 31.895C35.7584 31.873 35.7573 31.85 35.7556 31.8281C35.7545 31.8138 35.7538 31.8004 35.7527 31.7861C35.7509 31.7593 35.7488 31.7335 35.7459 31.7077L35.7431 31.679C35.742 31.6628 35.7402 31.6456 35.7384 31.6284C35.7377 31.6197 35.737 31.6111 35.7352 31.6026C35.7324 31.5682 35.7277 31.5328 35.7227 31.4984C35.717 31.4516 35.7103 31.4038 35.7028 31.357C35.6978 31.3236 35.6921 31.2911 35.6864 31.2576C35.6814 31.228 35.6767 31.1994 35.671 31.1697C35.6652 31.1401 35.6584 31.1086 35.6517 31.078V31.0761C35.6479 31.0579 35.644 31.0388 35.6402 31.0207C35.6392 31.0159 35.6382 31.0121 35.6373 31.0073C35.6334 30.9901 35.6296 30.9719 35.6248 30.9548C35.624 30.9489 35.6227 30.9432 35.621 30.9375C35.6132 30.906 35.6065 30.8755 35.5988 30.8449C35.5969 30.8382 35.5959 30.8324 35.594 30.8267C35.5863 30.7971 35.5786 30.7675 35.57 30.7369C35.5661 30.7235 35.5623 30.7092 35.5584 30.6949L35.544 30.6461C35.5402 30.6318 35.5363 30.6175 35.5315 30.6041C35.5307 30.5995 35.5294 30.595 35.5276 30.5907C35.5248 30.5812 35.5219 30.5725 35.519 30.563C35.518 30.5611 35.518 30.5582 35.5171 30.5563C35.5094 30.5315 35.5026 30.5076 35.494 30.4837C35.4921 30.4779 35.4901 30.4732 35.4882 30.4674C35.4863 30.4617 35.4844 30.4541 35.4815 30.4464C35.4719 30.4149 35.4613 30.3834 35.4488 30.3528C35.4459 30.3423 35.4411 30.3318 35.4372 30.3213C35.4362 30.3192 35.4355 30.3169 35.4353 30.3146C35.4238 30.2811 35.4113 30.2477 35.3978 30.2152V30.2142C35.3911 30.1961 35.3843 30.1779 35.3766 30.1598C35.3709 30.1435 35.3641 30.1263 35.3564 30.1101C35.343 30.0757 35.3286 30.0423 35.3141 30.0088L35.3084 29.9945C35.2968 29.9677 35.2843 29.94 35.2718 29.9123L35.266 29.9008C35.2631 29.8941 35.2602 29.8884 35.2574 29.8817C35.2564 29.8807 35.2564 29.8789 35.2555 29.8779C35.2429 29.8483 35.2285 29.8187 35.2141 29.789C35.2126 29.7866 35.2113 29.784 35.2102 29.7814C35.2064 29.7737 35.2016 29.7652 35.1978 29.7566C35.1573 29.6734 35.115 29.5922 35.0698 29.5119C35.0563 29.4871 35.0429 29.4622 35.0284 29.4384C35.0227 29.4269 35.016 29.4154 35.0092 29.404C34.9967 29.3829 34.9842 29.3629 34.9717 29.3418C34.966 29.3314 34.9592 29.3208 34.9525 29.3103C34.9265 29.2664 34.8996 29.2234 34.8717 29.1804C34.838 29.1288 34.8043 29.0791 34.7697 29.0284C34.7592 29.0141 34.7486 28.9998 34.738 28.9845C34.7329 28.9761 34.7271 28.9681 34.7207 28.9606C34.7014 28.9329 34.6813 28.9062 34.661 28.8785C34.6534 28.867 34.6447 28.8564 34.636 28.845L34.6187 28.8221C34.5908 28.7858 34.563 28.7494 34.5341 28.7141L34.4995 28.6711C34.4879 28.6568 34.4764 28.6424 34.4639 28.6281C34.4562 28.6186 34.4485 28.6099 34.4408 28.6004C34.4139 28.5679 34.386 28.5364 34.3571 28.5048C34.3273 28.4704 34.2965 28.436 34.2648 28.4026C34.235 28.3692 34.2032 28.3367 34.1705 28.3042C34.1397 28.2707 34.107 28.2392 34.0743 28.2077C34.0734 28.2067 34.0734 28.2067 34.0734 28.2058L34.0724 28.2048C34.0407 28.1733 34.008 28.1427 33.9743 28.1121C33.957 28.0949 33.9397 28.0797 33.9224 28.0634L34.2644 27.8667C34.42 27.7779 34.5962 27.7312 34.7756 27.7312C34.955 27.7312 35.1312 27.7779 35.2868 27.8667L35.9054 28.2211C35.9064 28.2216 35.9075 28.2222 35.9082 28.223H35.9089L35.91 28.224L37.7829 29.298L38.0097 29.4279C38.1367 29.5012 38.2466 29.6006 38.3315 29.7196C38.4167 29.8386 38.4748 29.9744 38.5027 30.1177Z" fill="url(#paint0_linear)"/>
<path d="M35.7696 32.2247C35.7696 32.2849 35.7689 32.3451 35.7668 32.4053C35.765 32.4645 35.7622 32.5247 35.7582 32.584V32.5888C35.7543 32.6404 35.7507 32.6929 35.7457 32.7445L35.7429 32.7818C35.7418 32.7875 35.7418 32.7942 35.7411 32.7999C35.7361 32.8458 35.7304 32.8917 35.7247 32.9375C35.7247 32.9404 35.7236 32.9432 35.7236 32.9461C35.7169 32.9987 35.7094 33.0512 35.7004 33.1028C35.6987 33.1191 35.6958 33.1343 35.693 33.1506C35.6919 33.1602 35.6901 33.1707 35.688 33.1802C35.688 33.1807 35.688 33.1813 35.688 33.1818C35.6876 33.1822 35.6876 33.1827 35.6873 33.1831V33.186C35.6744 33.2595 35.6611 33.3321 35.6448 33.4038C35.638 33.4363 35.6303 33.4688 35.6227 33.5013C35.613 33.5424 35.6034 33.5835 35.5928 33.6236C34.802 34.0215 33.9276 34.2281 33.0411 34.2265C32.9892 34.2265 32.9382 34.2255 32.8863 34.2246C32.869 34.2236 32.8507 34.2236 32.8324 34.2227H32.8237L32.7112 34.2169C32.6929 34.216 32.6737 34.215 32.6554 34.2131C32.6333 34.2122 32.6122 34.2102 32.59 34.2083C32.5554 34.2064 32.5198 34.2026 32.4852 34.1997C32.4746 34.1988 32.464 34.1978 32.4534 34.1959C32.4429 34.1959 32.4323 34.194 32.4207 34.193C32.4092 34.1921 32.3957 34.1902 32.3842 34.1883C32.3813 34.1889 32.3782 34.1886 32.3755 34.1873C32.3534 34.1854 32.3313 34.1826 32.3092 34.1797L32.2476 34.1711C32.2187 34.1682 32.1909 34.1634 32.163 34.1586C32.1303 34.1539 32.0985 34.1491 32.0668 34.1424C32.0658 34.1427 32.0648 34.1428 32.0638 34.1426C32.0628 34.1425 32.0618 34.1421 32.061 34.1415C32.0177 34.1348 31.9754 34.1271 31.934 34.1185C31.9291 34.1177 31.9243 34.1164 31.9196 34.1147C31.9134 34.1145 31.9072 34.1131 31.9013 34.1109C31.8561 34.1023 31.811 34.0927 31.7667 34.0832C31.7601 34.0811 31.7533 34.0795 31.7465 34.0784C31.7274 34.0746 31.7084 34.0698 31.6898 34.0641C31.6493 34.0545 31.609 34.044 31.5695 34.0335C31.5234 34.022 31.4781 34.0096 31.433 33.9962V33.9953C31.4315 33.9946 31.4298 33.9942 31.4281 33.9943H31.4268L31.4258 33.9933H31.4249C31.4234 33.9927 31.4217 33.9923 31.42 33.9924L31.4191 33.9914C31.3277 33.9647 31.2383 33.936 31.1488 33.9045C31.0713 33.7584 31.0307 33.5957 31.0305 33.4306V30.3089C31.0306 30.1304 31.0778 29.955 31.1677 29.8004C31.2575 29.6458 31.3867 29.5173 31.5422 29.4279L33.9218 28.0635C33.9391 28.0797 33.9564 28.095 33.9737 28.1122C34.0074 28.1428 34.0401 28.1734 34.0718 28.2049L34.0728 28.2058C34.0728 28.2068 34.0728 28.2068 34.0737 28.2078C34.1064 28.2393 34.1382 28.2718 34.1699 28.3043C34.2016 28.3368 34.2334 28.3693 34.2642 28.4027C34.2949 28.4361 34.3267 28.4705 34.3565 28.5049C34.3854 28.5365 34.4132 28.568 34.4402 28.6005C34.4479 28.61 34.4556 28.6186 34.4633 28.6282C34.4758 28.6425 34.4873 28.6569 34.4988 28.6712L34.5335 28.7142C34.5623 28.7495 34.5902 28.7858 34.6181 28.8222L34.6354 28.8451C34.6441 28.8566 34.6528 28.8671 34.6604 28.8785C34.6806 28.9063 34.7008 28.933 34.7201 28.9607C34.7265 28.9682 34.7323 28.9762 34.7374 28.9846C34.748 28.9989 34.7585 29.0133 34.7691 29.0286C34.8037 29.0792 34.8374 29.1289 34.8711 29.1805C34.898 29.2235 34.9259 29.2665 34.9519 29.3104C34.9586 29.3209 34.9653 29.3314 34.9711 29.342C34.9817 29.3582 34.9913 29.3754 35.0009 29.3926C35.0038 29.3964 35.0057 29.4002 35.0086 29.404C35.0153 29.4155 35.0221 29.427 35.0279 29.4385C35.0423 29.4623 35.0558 29.4872 35.0692 29.5121C35.1144 29.5923 35.1567 29.6735 35.1971 29.7566C35.201 29.7653 35.2058 29.7738 35.2096 29.7815C35.2107 29.7841 35.212 29.7867 35.2135 29.7891C35.2279 29.8178 35.2414 29.8484 35.2549 29.878C35.2558 29.879 35.2558 29.8808 35.2568 29.8818C35.2597 29.8885 35.2625 29.8942 35.2654 29.9009C35.2799 29.9325 35.2933 29.963 35.3077 29.9946L35.3135 30.0089C35.3279 30.0423 35.3424 30.0758 35.3558 30.1102C35.3626 30.1264 35.3693 30.1436 35.376 30.1599C35.3828 30.178 35.3905 30.1962 35.3972 30.2143V30.2153C35.4106 30.2487 35.4222 30.2812 35.4347 30.3146C35.4349 30.317 35.4355 30.3193 35.4366 30.3213C35.4405 30.3319 35.4453 30.3424 35.4482 30.3529C35.4607 30.3835 35.4713 30.415 35.4809 30.4465C35.4838 30.4542 35.4857 30.4608 35.4876 30.4675C35.4895 30.4742 35.4914 30.4781 35.4934 30.4838C35.502 30.5077 35.5088 30.5316 35.5165 30.5564C35.5174 30.5583 35.5174 30.5612 35.5184 30.5631C35.5213 30.5726 35.5241 30.5812 35.527 30.5908C35.5287 30.5951 35.5301 30.5996 35.5309 30.6042C35.5357 30.6176 35.5396 30.6319 35.5434 30.6462L35.5578 30.6949C35.5617 30.7093 35.5655 30.7236 35.5694 30.737C35.578 30.7676 35.5857 30.7972 35.5934 30.8268C35.5953 30.8325 35.5963 30.8383 35.5982 30.845C35.6059 30.8756 35.6126 30.9061 35.6203 30.9377C35.6221 30.9433 35.6234 30.949 35.6242 30.9548C35.629 30.972 35.6329 30.9902 35.6367 31.0074C35.6367 31.0093 35.6376 31.0112 35.6376 31.0141C35.6384 31.0163 35.6391 31.0185 35.6396 31.0208C35.6434 31.0389 35.6473 31.058 35.6511 31.0762V31.0781C35.6579 31.1087 35.6646 31.1392 35.6705 31.1698C35.6762 31.2004 35.6808 31.2281 35.6858 31.2577C35.6915 31.2912 35.6972 31.3237 35.7022 31.3571C35.7097 31.4039 35.7165 31.4517 35.7222 31.4985C35.7272 31.5329 35.7318 31.5683 35.7347 31.6027C35.7361 31.6112 35.7372 31.6198 35.7375 31.6285C35.7397 31.6457 35.7415 31.6619 35.7425 31.6791L35.7454 31.7078C35.7482 31.7336 35.75 31.7594 35.7522 31.7861C35.7532 31.8005 35.754 31.8139 35.755 31.8282C35.7568 31.8502 35.7579 31.8731 35.7597 31.8951C35.7618 31.9343 35.7636 31.9734 35.7647 32.0126C35.7664 32.0336 35.7664 32.0556 35.7675 32.0776C35.7689 32.1263 35.7696 32.175 35.7696 32.2247Z" fill="url(#paint1_linear)"/>
<path d="M38.5207 30.3088V33.4304C38.5207 33.6089 38.4737 33.7842 38.3841 33.9389C38.2946 34.0935 38.1655 34.222 38.01 34.3114L35.2871 35.8717C35.1496 35.951 34.9953 35.9971 34.8366 36.0063C34.6779 36.0155 34.5193 35.9879 34.3733 35.9252C34.3358 35.9103 34.2995 35.8922 34.2646 35.8717L34.1031 35.7792H34.1021L31.5423 34.3114C31.3757 34.2147 31.2394 34.0737 31.1489 33.9043C31.2384 33.9359 31.3278 33.9645 31.4192 33.9913L31.4201 33.9922C31.4218 33.9922 31.4235 33.9925 31.425 33.9932C31.4257 33.9933 31.4264 33.9936 31.4269 33.9942H31.4278C31.4295 33.9941 31.4312 33.9944 31.4327 33.9951V33.9961C31.4778 34.0094 31.5231 34.0219 31.5692 34.0333C31.6145 34.0467 31.6596 34.0582 31.7058 34.0677C31.726 34.0735 31.7462 34.0782 31.7664 34.083C31.8174 34.0945 31.8674 34.106 31.9193 34.1146C31.924 34.1163 31.9289 34.1175 31.9338 34.1184C31.9771 34.1279 32.0213 34.1356 32.0665 34.1423C32.106 34.1499 32.1463 34.1566 32.1867 34.1623C32.2021 34.1652 32.2185 34.1671 32.2348 34.169C32.2839 34.1767 32.3339 34.1834 32.3839 34.1881C32.4031 34.191 32.4224 34.1929 32.4407 34.1948C32.4955 34.2006 32.5513 34.2063 32.6061 34.2092C32.614 34.2107 32.6221 34.2114 32.6301 34.211C32.6975 34.2168 32.7648 34.2206 32.8321 34.2225C32.9014 34.2254 32.9706 34.2264 33.0408 34.2264C33.9273 34.2279 34.8017 34.0213 35.5925 33.6234C35.5935 33.6234 35.5935 33.6225 35.5945 33.6225C35.7273 33.5566 35.8564 33.4852 35.9819 33.4085C36.0101 33.3922 36.0379 33.375 36.0647 33.3578C36.0772 33.3502 36.0896 33.3425 36.1025 33.3339C36.115 33.3253 36.1264 33.3186 36.1389 33.31C36.1678 33.2919 36.1956 33.2728 36.2245 33.2536C36.2266 33.2527 36.2284 33.2514 36.2302 33.2498C36.2641 33.2279 36.2965 33.2049 36.3293 33.181C36.3357 33.1772 36.3418 33.1731 36.3475 33.1686C36.3554 33.1629 36.3629 33.1581 36.3707 33.1514C36.4167 33.1189 36.462 33.0855 36.5073 33.0501C36.5312 33.032 36.5562 33.0128 36.5804 32.9928C36.5975 32.9794 36.6161 32.9651 36.6332 32.9508C36.6457 32.9402 36.6582 32.9307 36.6707 32.9192C36.6785 32.9135 36.686 32.9077 36.6938 32.9011C36.7709 32.8361 36.8447 32.7702 36.9178 32.7033C36.9517 32.6717 36.9853 32.6393 37.017 32.6077C37.1169 32.5103 37.2128 32.4096 37.3045 32.3058C37.3209 32.2876 37.3362 32.2695 37.3516 32.2513C37.373 32.2284 37.3922 32.2045 37.4122 32.1806C37.424 32.1663 37.4364 32.152 37.4479 32.1376C37.4546 32.13 37.4603 32.1223 37.466 32.1147C37.4817 32.0956 37.4971 32.0765 37.5113 32.0574C37.526 32.0402 37.5392 32.022 37.5538 32.0038C37.5595 31.9952 37.5663 31.9867 37.5731 31.9781C37.5873 31.9599 37.6009 31.9417 37.6144 31.9226C37.6661 31.8529 37.7161 31.7822 37.7642 31.7096C37.7863 31.6771 37.8077 31.6446 37.8288 31.6111C37.8595 31.5634 37.8894 31.5156 37.9183 31.4669C37.9376 31.4353 37.9568 31.4028 37.975 31.3703C38.0481 31.2423 38.1163 31.1111 38.1798 30.9767C38.1915 30.9518 38.204 30.926 38.2143 30.9003C38.25 30.8238 38.2828 30.7474 38.3135 30.669L38.3538 30.5658C38.3645 30.5372 38.3752 30.5095 38.3848 30.4808C38.3856 30.4789 38.3866 30.476 38.3877 30.4741C38.3884 30.4718 38.3895 30.4696 38.3905 30.4674C38.3916 30.4655 38.3923 30.4645 38.3923 30.4636V30.4626C38.3955 30.4549 38.398 30.4469 38.4002 30.4387C38.402 30.4349 38.403 30.4311 38.4048 30.4263C38.4137 30.4024 38.4212 30.3785 38.4291 30.3537C38.4358 30.3356 38.4416 30.3164 38.4483 30.2973C38.4512 30.2887 38.454 30.2792 38.4558 30.2706C38.4576 30.2673 38.459 30.2637 38.4597 30.26C38.474 30.2132 38.4886 30.1655 38.5022 30.1177C38.5147 30.1806 38.5207 30.2446 38.5207 30.3088Z" fill="url(#paint2_linear)"/>
<g style="mix-blend-mode:multiply" opacity="0.15">
<g style="mix-blend-mode:multiply" opacity="0.15">
<g style="mix-blend-mode:multiply" opacity="0.15">
<path d="M35.7697 32.2247C35.7705 32.6966 35.7112 33.1666 35.5929 33.6236C34.3481 34.247 32.9158 34.3929 31.5696 34.0335C33.0787 34.1357 36.9211 33.8796 33.9222 28.0635C34.5052 28.5908 34.9706 29.2334 35.2888 29.9501C35.607 30.6667 35.7708 31.4415 35.7697 32.2247Z" fill="black"/>
</g>
</g>
</g>
<g style="mix-blend-mode:multiply" opacity="0.15">
<g style="mix-blend-mode:multiply" opacity="0.15">
<g style="mix-blend-mode:multiply" opacity="0.15">
<path d="M38.5025 30.1177C38.2881 30.8699 37.9193 31.5699 37.4189 32.1732C36.9181 32.7765 36.2972 33.27 35.5947 33.6225C35.6592 33.5718 37.6529 31.9924 37.7831 29.2979L38.0099 29.4278C38.1369 29.5011 38.2467 29.6006 38.3316 29.7196C38.4165 29.8386 38.4747 29.9743 38.5025 30.1177Z" fill="black"/>
</g>
</g>
</g>
<g style="mix-blend-mode:multiply" opacity="0.25">
<g style="mix-blend-mode:multiply" opacity="0.25">
<g style="mix-blend-mode:multiply" opacity="0.25">
<path d="M38.3881 30.4741C37.8988 31.8411 36.8983 32.9684 35.5949 33.6225C35.5944 33.6231 35.5937 33.6234 35.5929 33.6235C34.3482 34.2469 32.9158 34.3928 31.5696 34.0334C31.5235 34.0209 31.4783 34.0085 31.433 33.9961C31.4311 33.9951 31.4292 33.9951 31.4282 33.9942C31.4299 33.9941 31.4315 33.9944 31.433 33.9951C31.4725 34.0038 31.5937 34.0324 31.7822 34.0668C32.1012 34.1253 32.4245 34.1575 32.7488 34.1633C32.8489 34.1662 32.9537 34.1652 33.0605 34.1624C33.1701 34.1585 33.2817 34.1528 33.3952 34.1442C33.6339 34.1232 33.8712 34.0887 34.106 34.041C34.3568 33.9894 34.6039 33.9211 34.8456 33.8365C35.0943 33.7507 35.3367 33.6476 35.5708 33.5279C35.5881 33.5193 35.6054 33.5097 35.6227 33.5011C35.8397 33.3878 36.0498 33.2618 36.2516 33.1237C36.461 32.9768 36.6618 32.8182 36.853 32.6488C37.0295 32.4879 37.1968 32.3172 37.3541 32.1376C37.505 31.9656 37.6348 31.7937 37.7511 31.6312C37.8638 31.4659 37.9619 31.3111 38.0446 31.1707C38.0832 31.099 38.1206 31.0321 38.1541 30.971C38.1869 30.9079 38.2141 30.8496 38.2397 30.7971C38.2929 30.692 38.3275 30.6069 38.3542 30.5496C38.3696 30.5142 38.381 30.4884 38.3881 30.4741Z" fill="black"/>
</g>
</g>
</g>
<g style="mix-blend-mode:multiply" opacity="0.25">
<g style="mix-blend-mode:multiply" opacity="0.25">
<g style="mix-blend-mode:multiply" opacity="0.25">
<path d="M35.7034 32.9566C35.7123 32.8076 35.7198 32.5954 35.7141 32.3422C35.7113 32.2161 35.6977 32.0804 35.6909 31.9323C35.6745 31.79 35.6603 31.6399 35.6343 31.4842C35.6237 31.4058 35.6103 31.3275 35.5929 31.2482C35.5756 31.1688 35.5612 31.0886 35.541 31.0083C35.5044 30.8469 35.4573 30.6863 35.4063 30.5268L35.3255 30.2888C35.2948 30.2114 35.264 30.134 35.2342 30.0576C35.2005 29.9821 35.1678 29.9067 35.1351 29.8331C35.1024 29.7595 35.0639 29.6888 35.0303 29.6171C34.9966 29.5454 34.9562 29.4795 34.9206 29.4126C34.885 29.3457 34.8485 29.2808 34.81 29.2196C34.7359 29.0945 34.66 28.9808 34.5897 28.8747C34.5157 28.7725 34.4493 28.676 34.3858 28.5938C34.3214 28.5135 34.2685 28.4399 34.2194 28.3826C34.1387 28.2852 34.0867 28.2231 34.0732 28.2068C34.7266 28.8447 35.2147 29.6303 35.4959 30.4964C35.7772 31.3624 35.8432 32.2833 35.6881 33.1802C35.6902 33.1544 35.6966 33.076 35.7034 32.9566Z" fill="black"/>
</g>
</g>
</g>
<g style="mix-blend-mode:screen" opacity="0.4">
<g style="mix-blend-mode:screen" opacity="0.4">
<g style="mix-blend-mode:screen" opacity="0.4">
<path d="M35.9085 28.223C35.8943 28.2163 35.7962 28.1676 35.6336 28.0835C35.5451 28.0376 35.4393 27.9803 35.3162 27.922C35.1817 27.8549 35.0371 27.8098 34.8882 27.7882C34.715 27.7705 34.5403 27.8005 34.3832 27.8752C34.2417 27.945 34.1052 28.0241 33.9744 28.1121C33.9675 28.1159 33.9608 28.1201 33.9542 28.1245C33.9244 28.1427 33.8936 28.1618 33.8628 28.18C33.4983 28.3969 33.1069 28.6233 32.7154 28.8498C32.5182 28.9616 32.322 29.0724 32.1287 29.1823C31.9373 29.295 31.7372 29.3944 31.565 29.5043C31.3987 29.6021 31.2641 29.7454 31.1774 29.9171C31.1104 30.0779 31.0761 30.2503 31.0765 30.4245C31.0726 30.5917 31.0678 30.7484 31.062 30.885C31.0563 31.0217 31.0514 31.142 31.0476 31.2405C31.039 31.4373 31.0312 31.5491 31.0312 31.5491V30.3088C31.0313 30.1303 31.0786 29.9549 31.1684 29.8003C31.2582 29.6457 31.3874 29.5172 31.5429 29.4279L33.9225 28.0634L34.2645 27.8667C34.4201 27.7779 34.5963 27.7312 34.7757 27.7312C34.9551 27.7312 35.1314 27.7779 35.2869 27.8667L35.9053 28.2212C35.9067 28.2215 35.9078 28.2221 35.9085 28.223Z" fill="white"/>
</g>
</g>
</g>
<g style="mix-blend-mode:multiply" opacity="0.25">
<g style="mix-blend-mode:multiply" opacity="0.25">
<g style="mix-blend-mode:multiply" opacity="0.25">
<path d="M38.5207 31.1831V33.4304C38.5207 33.6089 38.4736 33.7842 38.3841 33.9388C38.2946 34.0935 38.1654 34.222 38.0099 34.3114L35.287 35.8717C35.1495 35.9511 34.9952 35.9971 34.8366 36.0063C34.6779 36.0155 34.5192 35.9879 34.3733 35.9252C34.3358 35.9103 34.2994 35.8922 34.2646 35.8717L34.103 35.7792C34.1126 35.7838 34.1232 35.7895 34.1357 35.7962C34.1867 35.8221 34.2617 35.8593 34.3589 35.8986C34.4748 35.9468 34.5987 35.973 34.7244 35.9759C34.885 35.9744 35.043 35.9358 35.186 35.8632C35.3447 35.7866 35.5092 35.6768 35.6901 35.5716C35.8688 35.4646 36.0575 35.3519 36.2537 35.2354C36.6442 35.0032 37.0644 34.7615 37.4849 34.5178C37.6957 34.4089 37.8997 34.2873 38.0955 34.1537C38.2682 34.0204 38.3844 33.8279 38.4215 33.6139C38.4508 33.4021 38.4636 33.1884 38.46 32.9747C38.465 32.7673 38.4697 32.5714 38.4736 32.3899C38.4832 32.0278 38.4975 31.7268 38.5043 31.5147C38.515 31.3035 38.5207 31.1831 38.5207 31.1831Z" fill="black"/>
</g>
</g>
</g>
<g style="mix-blend-mode:screen" opacity="0.4">
<g style="mix-blend-mode:screen" opacity="0.4">
<g style="mix-blend-mode:screen" opacity="0.4">
<path d="M31.4336 33.9952V33.9963C31.4308 33.9954 31.428 33.9944 31.4253 33.9932C31.4282 33.9935 31.4309 33.9942 31.4336 33.9952Z" fill="white"/>
</g>
</g>
</g>
<g style="mix-blend-mode:screen" opacity="0.4">
<g style="mix-blend-mode:screen" opacity="0.4">
<g style="mix-blend-mode:screen" opacity="0.4">
<path d="M38.3928 30.4636C38.391 30.4703 38.3814 30.5009 38.3639 30.5534C38.3429 30.6127 38.3208 30.7034 38.2744 30.8114C38.2523 30.8659 38.2302 30.928 38.2024 30.993C38.1745 31.0579 38.1417 31.1286 38.1082 31.2032C38.0725 31.2777 38.0312 31.3551 37.9898 31.4382C37.9466 31.5204 37.8945 31.6026 37.8435 31.6905C37.7897 31.7765 37.7323 31.8663 37.6695 31.9561C37.6042 32.045 37.5407 32.1386 37.4648 32.2284C37.3121 32.4207 37.1462 32.6024 36.9683 32.7721C36.7767 32.9531 36.5731 33.121 36.3587 33.2747C36.1358 33.4302 35.9029 33.571 35.6613 33.6961C35.4172 33.819 35.1645 33.9244 34.9053 34.0114C34.655 34.0949 34.3987 34.1598 34.1387 34.2054C33.896 34.2495 33.6504 34.2763 33.4039 34.2856C33.2856 34.2904 33.1711 34.2923 33.0624 34.2894C32.9509 34.2866 32.8451 34.2809 32.7431 34.2732C32.4154 34.2462 32.0908 34.1893 31.7736 34.1031C31.6591 34.0735 31.5716 34.0429 31.511 34.0229C31.4735 34.0104 31.4475 34.0009 31.4331 33.9961C32.8258 34.4043 34.3231 34.2666 35.6168 33.6115C36.9105 32.9563 37.9024 31.8336 38.3882 30.4741C38.3889 30.4718 38.39 30.4696 38.391 30.4675C38.3917 30.4656 38.3928 30.4646 38.3928 30.4636Z" fill="white"/>
</g>
</g>
</g>
<g style="mix-blend-mode:screen" opacity="0.4">
<g style="mix-blend-mode:screen" opacity="0.4">
<g style="mix-blend-mode:screen" opacity="0.4">
<path d="M35.8332 31.9294C35.8325 32.0746 35.8332 32.2151 35.8236 32.3441C35.8104 32.5515 35.7826 32.7577 35.7412 32.9613C35.7102 33.1075 35.6874 33.1897 35.6874 33.1897V33.183C35.6877 33.1826 35.6877 33.1822 35.6881 33.1817C35.6881 33.1812 35.6881 33.1807 35.6881 33.1802C35.6931 33.1544 35.6966 33.1285 35.7006 33.1027C35.7095 33.0512 35.717 32.9986 35.7237 32.9461C35.7237 32.9432 35.7248 32.9403 35.7248 32.9375C35.7316 32.8859 35.7373 32.8333 35.743 32.7817L35.7458 32.7444C35.7505 32.6929 35.7544 32.6403 35.7583 32.5887V32.5839C35.7623 32.5247 35.7651 32.4645 35.7669 32.4052C35.769 32.346 35.7697 32.2848 35.7697 32.2246C35.7697 32.0775 35.764 31.9313 35.7526 31.7861C35.7498 31.7498 35.7469 31.7144 35.743 31.679C35.738 31.6188 35.7316 31.5587 35.7227 31.4985C35.717 31.4516 35.7102 31.4039 35.7027 31.3571C35.6977 31.3236 35.692 31.2911 35.6863 31.2577C35.6767 31.1975 35.6651 31.1363 35.6516 31.0762C35.642 31.0293 35.6324 30.9835 35.6208 30.9376C35.6122 30.9003 35.6035 30.8631 35.5939 30.8267C35.5785 30.7665 35.5621 30.7064 35.5439 30.6462C35.5362 30.6175 35.5275 30.5908 35.5189 30.563C35.5092 30.5306 35.4996 30.499 35.4881 30.4675C35.4862 30.4608 35.4842 30.4541 35.4813 30.4465C35.4679 30.4044 35.4534 30.3624 35.4371 30.3213C35.4121 30.2506 35.3852 30.1799 35.3563 30.1101C35.3428 30.0757 35.3284 30.0423 35.314 30.0088C35.2967 29.9668 35.2774 29.9238 35.2572 29.8817C35.239 29.8397 35.2188 29.7986 35.1976 29.7566C35.1572 29.6735 35.1149 29.5922 35.0697 29.512C35.0322 29.4432 34.9937 29.3763 34.9524 29.3104C34.8263 29.1027 34.6865 28.9035 34.5339 28.7141C34.5118 28.6855 34.4878 28.6568 34.4637 28.6282C34.456 28.6186 34.4483 28.61 34.4406 28.6004C34.4137 28.5679 34.3858 28.5364 34.357 28.5049C34.3271 28.4705 34.2964 28.4361 34.2647 28.4027C34.2348 28.3692 34.2031 28.3367 34.1704 28.3042C34.1396 28.2708 34.1069 28.2392 34.0742 28.2077C34.0732 28.2067 34.0723 28.2058 34.0723 28.2048C34.0867 28.2163 34.1483 28.2708 34.2473 28.3568C34.4003 28.4984 34.5442 28.6493 34.6782 28.8087C34.759 28.91 34.8475 29.0189 34.9302 29.1422C34.9745 29.2024 35.0168 29.2664 35.0572 29.3333C35.0976 29.4002 35.1418 29.4661 35.1793 29.5378C35.2592 29.6792 35.3361 29.8292 35.4054 29.985C35.4371 30.0643 35.4698 30.1436 35.5025 30.2238C35.5313 30.3051 35.5602 30.3863 35.5891 30.4684C35.6401 30.6337 35.6863 30.8009 35.722 30.9682C35.7412 31.0501 35.7569 31.1331 35.768 31.2166C35.7833 31.2988 35.794 31.3809 35.8015 31.4612C35.8236 31.6218 35.8268 31.7803 35.8332 31.9294Z" fill="white"/>
</g>
</g>
</g>
<path d="M63.6991 36.1418V21.8296L59.1151 31.894H55.109L50.525 21.8296V36.1418H43.0134V8.97167H51.2184L57.112 21.7531L63.0442 8.97167H71.2106V36.1418H63.6991ZM88.2183 36.3714C86.1382 36.3714 84.2507 35.9759 82.5557 35.1851C80.8608 34.3942 79.4099 33.361 78.2029 32.0854C76.9959 30.7843 76.0586 29.3046 75.3909 27.6463C74.7232 25.9881 74.3893 24.2788 74.3893 22.5184C74.3893 20.7326 74.736 19.0106 75.4294 17.3523C76.1228 15.694 77.0858 14.2399 78.3184 12.9898C79.5768 11.7142 81.0534 10.7065 82.7483 9.96663C84.4689 9.20128 86.3436 8.8186 88.3724 8.8186C90.4525 8.8186 92.34 9.21404 94.0349 10.0049C95.7298 10.7958 97.1808 11.8418 98.3878 13.1429C99.5948 14.444 100.519 15.9236 101.161 17.5819C101.829 19.2402 102.163 20.9367 102.163 22.6715C102.163 24.4573 101.816 26.1794 101.123 27.8377C100.429 29.4704 99.4664 30.9246 98.2337 32.2002C97.001 33.4503 95.5244 34.458 93.8038 35.2233C92.1089 35.9887 90.2471 36.3714 88.2183 36.3714ZM82.0164 22.595C82.0164 23.5134 82.1448 24.4063 82.4017 25.2737C82.6585 26.1156 83.0437 26.8682 83.5573 27.5315C84.0709 28.1948 84.7129 28.7306 85.4833 29.1388C86.2794 29.5469 87.2168 29.751 88.2953 29.751C89.3739 29.751 90.3113 29.5469 91.1073 29.1388C91.9034 28.7051 92.5455 28.1566 93.0334 27.4932C93.547 26.8044 93.9194 26.0263 94.1505 25.1589C94.4073 24.2915 94.5357 23.4114 94.5357 22.5184C94.5357 21.6 94.4073 20.7199 94.1505 19.878C93.8937 19.0106 93.4956 18.258 92.9563 17.6202C92.4427 16.9569 91.7879 16.4339 90.9918 16.0512C90.2214 15.643 89.3097 15.4389 88.2568 15.4389C87.1782 15.4389 86.2409 15.643 85.4448 16.0512C84.6744 16.4594 84.0324 17.0079 83.5188 17.6967C83.0051 18.36 82.6199 19.1254 82.3631 19.9928C82.132 20.8347 82.0164 21.7021 82.0164 22.595ZM109.533 8.97167L114.887 26.7662L120.165 8.97167H128.061L118.007 36.1418H111.767L101.597 8.97167H109.533ZM130.136 36.1418V8.97167H137.648V36.1418H130.136ZM161.854 29.6362V36.1418H142.362V8.97167H161.507V15.4772H149.874V19.304H159.812V25.3503H149.874V29.6362H161.854Z" fill="url(#paint3_linear)"/>
<path d="M28.8905 19.4976C28.8912 20.52 28.7591 21.5382 28.4973 22.5271C28.2416 23.497 27.867 24.432 27.3821 25.3113C27.1108 25.7997 26.8043 26.2681 26.4652 26.7126C26.452 26.7354 26.4423 26.7481 26.4392 26.7564L26.4361 26.7595C26.1719 27.1055 25.8897 27.4376 25.5906 27.7544C25.1664 28.2026 24.7078 28.6172 24.2188 28.9946C24.2188 28.9946 20.7007 31.5043 16.4809 31.5043L15.7883 31.5073L12.8265 31.5266V23.4156H16.7736C17.2933 23.4198 17.8083 23.3163 18.2856 23.1117C18.756 22.9131 19.1841 22.6272 19.5467 22.2691C19.9083 21.9078 20.1955 21.4799 20.3922 21.0093C20.5992 20.5321 20.7032 20.0171 20.6976 19.4976C20.6994 19.2341 20.6743 18.9712 20.6227 18.7129C20.621 18.7099 20.62 18.7066 20.6196 18.7032C20.5705 18.4546 20.4943 18.212 20.3922 17.9798C19.9924 17.0326 19.2349 16.2789 18.282 15.8804C17.8061 15.6756 17.2922 15.5722 16.7736 15.577H12.8265C12.826 13.4194 11.963 11.3504 10.4273 9.82471C8.89165 8.29907 6.80903 7.44166 4.63721 7.44095H16.7736C17.8624 7.4383 18.9464 7.58386 19.9954 7.87363C21.0067 8.15387 21.9771 8.56323 22.8823 9.09146C23.2076 9.28195 23.5228 9.48863 23.8287 9.70846L23.8543 9.72423C25.2244 10.7121 26.3735 11.9712 27.2291 13.4224C27.7602 14.3233 28.1722 15.2883 28.455 16.2938C28.7465 17.337 28.893 18.4149 28.8905 19.4976Z" fill="url(#paint4_linear)"/>
<path d="M27.5769 36.8611H18.8118L17.4303 33.6861L16.4795 31.5031C20.6994 31.5031 24.2175 28.9934 24.2175 28.9934L25.2251 31.3581L25.4015 31.7685C25.4015 31.7715 25.405 31.7715 25.405 31.7746L27.5769 36.8611Z" fill="url(#paint5_linear)"/>
<path d="M12.8265 15.5769V36.8596H4.63721V7.44092C6.80903 7.44163 8.89165 8.29904 10.4273 9.82468C11.963 11.3504 12.826 13.4194 12.8265 15.5769Z" fill="url(#paint6_linear)"/>
<g style="mix-blend-mode:multiply" opacity="0.16">
<g style="mix-blend-mode:multiply" opacity="0.16">
<g style="mix-blend-mode:multiply" opacity="0.16">
<path d="M12.8265 15.5769C12.826 13.4194 11.963 11.3504 10.4273 9.82468C8.89165 8.29904 6.80903 7.44163 4.63721 7.44092H12.0529C13.7077 8.97843 15.2977 11.4978 15.6909 15.5769H12.8265Z" fill="black"/>
</g>
</g>
</g>
<g style="mix-blend-mode:multiply" opacity="0.16">
<g style="mix-blend-mode:multiply" opacity="0.16">
<g style="mix-blend-mode:multiply" opacity="0.16">
<path d="M15.7884 23.4155V31.506L12.8267 31.5252V23.4155H15.7884Z" fill="black"/>
</g>
</g>
</g>
<g style="mix-blend-mode:multiply" opacity="0.16">
<g style="mix-blend-mode:multiply" opacity="0.16">
<g style="mix-blend-mode:multiply" opacity="0.16">
<path d="M25.2265 31.3577C22.801 32.6205 20.1547 33.4108 17.4303 33.6861L16.4795 31.5031C20.6994 31.5031 24.2175 28.9934 24.2175 28.9934L25.2265 31.3577Z" fill="black"/>
</g>
</g>
</g>
<g style="mix-blend-mode:multiply" opacity="0.25">
<g style="mix-blend-mode:multiply" opacity="0.25">
<g style="mix-blend-mode:multiply" opacity="0.25">
<path d="M28.8904 19.4976C28.8911 20.52 28.759 21.5382 28.4972 22.5271C28.2415 23.4969 27.8669 24.432 27.382 25.3113C27.1107 25.7997 26.8043 26.268 26.4651 26.7126C26.5237 26.6189 26.6666 26.3929 26.8583 26.0474C27.2087 25.4178 27.5098 24.7624 27.7589 24.0869C28.107 23.1414 28.346 22.1598 28.4712 21.1608C28.5363 20.6011 28.5667 20.0381 28.562 19.4748C28.5563 18.8929 28.5086 18.3122 28.4192 17.7371C28.3344 17.162 28.2061 16.594 28.0353 16.0381C27.8702 15.4989 27.6716 14.9705 27.4406 14.4559C27.2203 13.9739 26.9728 13.5048 26.6992 13.0506C26.4347 12.621 26.1596 12.2238 25.8894 11.8717C25.45 11.3001 24.9663 10.7635 24.4427 10.2668C24.0627 9.90158 23.8286 9.70801 23.8286 9.70801L23.8542 9.72378C25.2243 10.7116 26.3734 11.9708 27.229 13.422C27.7602 14.3228 28.1722 15.2879 28.4549 16.2934C28.7464 17.3367 28.893 18.4148 28.8904 19.4976Z" fill="black"/>
</g>
</g>
</g>
<g style="mix-blend-mode:multiply" opacity="0.25">
<g style="mix-blend-mode:multiply" opacity="0.25">
<g style="mix-blend-mode:multiply" opacity="0.25">
<path d="M27.5769 36.861H21.0388C21.585 36.7802 22.1281 36.7317 22.6742 36.6856C23.2204 36.6395 23.7635 36.608 24.3052 36.5825C24.847 36.5566 25.3976 36.5439 25.9406 36.5336L27.0717 36.524C26.9611 36.253 26.8513 35.9815 26.7469 35.7069C26.5745 35.2778 26.4118 34.8482 26.2558 34.412C26.0997 33.9759 25.9472 33.5401 25.8005 33.0983C25.6536 32.6564 25.521 32.2168 25.4037 31.771L27.5769 36.861Z" fill="black"/>
</g>
</g>
</g>
<g style="mix-blend-mode:screen" opacity="0.7">
<g style="mix-blend-mode:screen" opacity="0.7">
<g style="mix-blend-mode:screen" opacity="0.7">
<path d="M4.97837 22.1526C4.9753 23.0722 4.97177 23.9918 4.9656 24.8948C4.95943 25.7978 4.94577 26.6903 4.93606 27.5529C4.91359 29.2775 4.87743 30.8859 4.83202 32.2649C4.75091 35.0238 4.63721 36.8606 4.63721 36.8606V7.44092C4.63721 7.44092 4.75091 9.28014 4.83202 12.0368C4.87611 13.4162 4.91359 15.0243 4.93606 16.7492C4.94577 17.6114 4.9656 18.5031 4.9656 19.4073C4.9656 20.3116 4.97441 21.2321 4.97837 22.1526Z" fill="black"/>
</g>
</g>
</g>
<g style="mix-blend-mode:multiply" opacity="0.25">
<g style="mix-blend-mode:multiply" opacity="0.25">
<g style="mix-blend-mode:multiply" opacity="0.25">
<path d="M20.8472 20.1309C20.8349 20.3723 20.7957 20.6118 20.7304 20.8447C20.6947 20.9673 20.6488 21.103 20.6065 21.2191C20.5573 21.3497 20.4998 21.4771 20.4346 21.6005C20.2997 21.8625 20.1339 22.1076 19.9404 22.3305C19.7403 22.5596 19.5156 22.7663 19.2704 22.9471C19.0197 23.1213 18.7518 23.2697 18.4708 23.3898C18.1988 23.5043 17.9138 23.5856 17.6222 23.632C17.3514 23.6755 17.0764 23.6874 16.8028 23.6675C16.5559 23.6547 16.3284 23.632 16.1138 23.6092C15.2652 23.5286 14.6992 23.4156 14.6992 23.4156H16.7737C17.2934 23.4199 17.8084 23.3164 18.2856 23.1117C18.7562 22.9132 19.1842 22.6273 19.5468 22.2692C19.9084 21.9078 20.1956 21.4799 20.3923 21.0093C20.5993 20.5322 20.7034 20.0172 20.6978 19.4976C20.6995 19.2342 20.6744 18.9713 20.6228 18.7129C20.6748 18.8308 20.7163 18.953 20.7467 19.0781C20.8322 19.4222 20.866 19.7769 20.8472 20.1309Z" fill="black"/>
</g>
</g>
</g>
<g style="mix-blend-mode:screen" opacity="0.7">
<g style="mix-blend-mode:screen" opacity="0.7">
<g style="mix-blend-mode:screen" opacity="0.7">
<path d="M12.8265 15.5769V36.8597C12.8265 36.8597 12.7974 36.3272 12.7648 35.3965C12.7322 34.4659 12.6766 33.1325 12.6414 31.5371C12.5973 29.9414 12.5633 28.0776 12.5404 26.0821C12.5307 25.0841 12.521 24.0536 12.5113 23.004C12.5016 21.9543 12.5047 20.8919 12.5016 19.8291C12.4985 18.7663 12.5078 17.6973 12.5144 16.6512C12.5113 16.1309 12.5276 15.6002 12.5113 15.1106C12.4884 14.6234 12.4187 14.1395 12.3032 13.6655C12.0847 12.7612 11.7107 11.9013 11.1977 11.1234C10.3327 9.82028 9.11126 8.78953 7.67697 8.15212C7.16771 7.92507 6.6358 7.75187 6.09006 7.6354C5.73684 7.55986 5.37967 7.5037 5.02021 7.46724C4.76983 7.45104 4.63672 7.44141 4.63672 7.44141C6.80854 7.44208 8.8912 8.29952 10.4268 9.82517C11.9625 11.3508 12.8255 13.4199 12.8261 15.5774L12.8265 15.5769Z" fill="black"/>
</g>
</g>
</g>
<defs>
<linearGradient id="paint0_linear" x1="36.2125" y1="33.3937" x2="36.2125" y2="28.615" gradientUnits="userSpaceOnUse">
<stop stop-color="#EB7A81"/>
<stop offset="1" stop-color="#F8D2D5"/>
</linearGradient>
<linearGradient id="paint1_linear" x1="35.2959" y1="32.8028" x2="31.0298" y2="31.1407" gradientUnits="userSpaceOnUse">
<stop stop-color="#DE212D"/>
<stop offset="1" stop-color="#EB7A81"/>
</linearGradient>
<linearGradient id="paint2_linear" x1="37.592" y1="31.661" x2="34.4056" y2="35.7273" gradientUnits="userSpaceOnUse">
<stop stop-color="#DE212D"/>
<stop offset="1" stop-color="#E54D57"/>
</linearGradient>
<linearGradient id="paint3_linear" x1="102.009" y1="45" x2="102.009" y2="2.08521e-05" gradientUnits="userSpaceOnUse">
<stop stop-color="#DE212D"/>
<stop offset="0.661458" stop-color="#E54D57"/>
<stop offset="1" stop-color="#F2A6AB"/>
</linearGradient>
<linearGradient id="paint4_linear" x1="28.8907" y1="19.4882" x2="6.42022" y2="19.4882" gradientUnits="userSpaceOnUse">
<stop stop-color="#F2A6AB"/>
<stop offset="0.322917" stop-color="#E75C65"/>
<stop offset="0.552083" stop-color="#E02F3A"/>
<stop offset="0.671875" stop-color="#DE212D"/>
<stop offset="1" stop-color="#B21A24"/>
</linearGradient>
<linearGradient id="paint5_linear" x1="19.4386" y1="31.8899" x2="27.4342" y2="36.8978" gradientUnits="userSpaceOnUse">
<stop stop-color="#E54D57"/>
<stop offset="1" stop-color="#B21A24"/>
</linearGradient>
<linearGradient id="paint6_linear" x1="4.63685" y1="7.44092" x2="12.7405" y2="36.8779" gradientUnits="userSpaceOnUse">
<stop stop-color="#F8D2D5"/>
<stop offset="0.192708" stop-color="#EB7A81"/>
<stop offset="1" stop-color="#DE212D"/>
</linearGradient>
</defs>
</svg>
